<svg width="1875" height="1905" fill="none" xmlns="http://www.w3.org/2000/svg"><path fill-rule="evenodd" clip-rule="evenodd" d="m84 953 81-75c23-21 45-42 70-60 32-25 68-44 108-54 36-9 73-15 107 7l-3 16c-11-3-23-7-35-7-15-1-30 1-45 3-49 5-93 26-131 55-26 21-47 47-71 70l-44 40c-1 1-1 7 1 9 26 26 55 51 80 78a281 281 0 0 0 206 92c13 0 26-6 39-9 4 12 4 17-9 23-27 10-53 9-80 3-64-12-116-47-164-90l-68-65-42-36ZM289 1522l10-69 8-66c5-38 13-76 26-112 14-38 34-70 61-98 10-11 24-18 38-25 6-4 14-5 21-8l9 14-16 10c-41 24-69 59-90 101-19 38-28 80-29 123-1 31-5 62-7 93l-3 6 4 7c40 4 80 8 120 10 60 4 118-5 170-38 25-15 48-32 64-57l13 10c-10 25-26 45-49 59-40 24-84 39-130 42-31 2-63 3-94 2-27 0-55-5-82-6-14-1-29 1-44 2ZM461 747l-8 16-40-20c-28-18-47-45-62-73-24-44-36-91-42-140l-20-144 1-2h28c52-2 103-5 154-5 64-1 124 15 178 51 18 13 29 32 38 52l-13 10-15-19c-24-27-55-45-88-58-41-17-84-22-128-18-38 2-75 6-113 10h-9c-3 0-6 3-6 5l6 34 6 83c5 65 27 122 72 170 16 17 32 35 54 43l7 5ZM1796 1253c-41 17-81 36-122 52-32 13-66 25-99 32-40 9-80 9-120 1-27-5-48-20-67-38l9-14 20 12c42 21 86 26 133 24 59-4 107-32 158-57l51-20c1 0 4-5 3-7-14-30-31-59-44-90-15-36-34-69-61-97-25-27-55-47-89-63-17-8-33-11-51-13l-7-2 2-14c40-9 73 8 104 29 37 26 67 59 90 99s44 83 66 125l24 41ZM1396 617l-9-13 34-25c23-14 49-16 74-17 58-4 112 10 165 32l97 43c12 5 26 8 39 12l-50 95c-11 21-21 44-34 64-15 23-32 45-50 67-24 31-56 52-91 66-18 8-38 6-58 8l-3-17 19-4c46-9 83-33 117-64 37-33 58-75 77-119l32-71c2-2 6-4 6-6 0-3-1-8-3-8l-53-22c-36-16-70-34-108-46-50-16-101-14-152 3-16 6-32 14-49 22ZM1043 1492h13c5 24 8 47 1 72-16 51-44 93-81 128-23 22-49 40-74 60l-72 56-17 14-35-58c-22-35-46-69-66-105-24-44-40-91-40-142 0-49 5-58 25-87 16 3 15 3 10 19-20 57-14 114 6 171 16 44 46 79 72 116 11 15 20 31 30 47 1 2 7 3 9 2 30-21 60-45 91-65 43-29 77-67 100-113 9-18 15-39 20-59 4-18 5-37 8-56ZM698 477c-18-25-25-50-26-79-3-66 22-124 54-179 27-46 58-90 88-135l53 42 78 59c47 38 85 83 107 142 11 29 12 57 4 87h-15l-1-12c0-60-23-111-60-158-26-33-61-54-95-79l-62-45c-1-2-7 0-8 2-10 16-19 33-30 47-41 53-79 107-88 176-3 23 0 47 0 70 0 18 7 33 13 49 5 12-8 8-12 13ZM1407 189l23 103c6 29 14 59 17 89 3 27 5 55 2 82-3 25-13 50-19 75-6 21-19 37-36 50l-12 9-12-9c2-5 5-9 8-12 32-36 45-80 52-127 9-59-10-113-25-169l-13-57c0-2-5-5-7-4-37 10-73 21-110 30a283 283 0 0 0-180 132c-4 7-5 16-8 24l-6 14c-12 0-15-5-14-17 5-46 36-75 67-102 44-37 97-58 152-74l121-37ZM1408 1716l-108-34c-34-12-68-22-101-37-38-17-72-42-99-75-17-20-29-41-33-67-1-12 2-17 14-18l5 12c19 56 60 95 109 126 41 26 88 33 134 45 19 5 37 12 55 18 2 0 8-2 8-4l11-51c8-30 19-60 24-91 4-26 2-54 3-81 0-40-18-74-34-108-6-12-17-21-27-33l14-11c10 9 20 17 28 27 23 29 32 64 37 100 8 58-2 115-16 171-9 36-16 73-23 110l-1 1ZM1276 1035l9 2c34 13 65 4 93-17 9-8 15-22 22-33 5-8 10-17 13-26 2-5 2-12 0-17-3-10-10-18-14-27a91 91 0 0 0-115-49l-8 2v-4c36-23 75-29 107 3 22 23 36 53 36 86 0 45-36 92-77 102-25 5-46-7-67-17l1-5ZM936 168l-9-6c30-34 68-46 109-52 56-8 108 3 157 29 29 16 55 36 71 66 4 6 13 16-3 22-8-36-36-54-63-72-23-16-50-24-79-27-21-2-42-7-63-7-37-2-71 9-101 30-7 4-12 10-19 17ZM927 1743l10-6c18 25 44 33 71 41 33 10 67 9 100 1 24-6 49-10 71-19 32-14 60-34 76-66 3-4 4-9 6-15 9 1 11 5 7 13-9 23-26 39-44 53-28 23-59 37-93 45-65 14-127 10-184-28-7-5-12-12-20-19ZM189 845l-7 7c-18-16-24-37-29-58-10-41-5-82 7-122 11-36 29-69 55-97 20-22 44-41 75-48 10-3 11-2 11 8-20 2-37 12-53 24-54 41-73 102-87 164-8 36-2 74 17 108l11 14ZM301 1370c2 9-3 12-10 9-18-8-36-16-51-27-32-23-53-55-69-91-13-26-19-55-22-85-3-35 2-68 16-100l15-24 9 8a92 92 0 0 0-26 55c-14 76 13 141 55 201 17 24 42 44 72 52l11 2ZM1448 333l-4-11c48-7 88 9 124 35 54 38 91 89 105 154 5 26 8 52-4 79l-10-4 5-12c7-37 1-72-16-104-26-47-58-90-105-116-21-11-46-17-69-23-8-2-17 1-26 2ZM1443 1585l5-14c19 7 37 3 54-3 40-12 73-34 99-67 17-23 39-43 49-70 13-32 21-65 14-99l-2-6-3-5c7-9 13-5 13 3 3 18 6 36 4 54-5 41-21 78-46 110-35 47-80 81-139 94-14 3-30 2-48 3ZM729 1701c-2 3-2 9-5 10-14 5-28 12-43 13-60 6-115-11-164-46-36-26-65-59-80-101-5-13-7-27-10-42h12l2 16c3 31 19 56 39 78 38 40 85 66 137 81 28 8 58 8 87-1 7-2 13-6 20-9l5 1ZM1733 787c1-6 2-9 11-5 20 9 31 27 42 44 23 36 33 76 34 117 2 53-10 103-41 147-9 13-23 22-35 32-7 6-10 2-10-1 12-13 24-22 33-34 29-39 40-83 38-133-1-25 0-51-8-76-9-30-23-58-46-79-5-5-12-8-18-12ZM724 206a90 90 0 0 0-47-16c-56-5-102 18-148 46-42 26-71 61-87 107l-4 27-8 1c-3-21 3-40 13-58 39-73 101-116 182-130 27-5 54-5 81 2 6 2 13 5 18 9 3 1 3 6 5 10l-5 2ZM645 964c-3 1-7 4-10 4-15 0-30-2-43 2a78 78 0 0 0-61 70c-2 20-2 41 1 61 1 11 7 23 14 32 13 14 28 27 42 40 23 21 74 19 100-6l21-19 7 6c-24 24-49 46-85 46-19-1-35-11-50-21-24-16-40-40-55-65-5-9-4-23-5-35-2-28 3-55 15-81 10-23 30-33 53-37 17-4 36-3 54-4l2 7ZM716 750l-6 6c-13-10-25-21-38-29a74 74 0 0 0-78 1c-23 14-42 34-56 58-12 20-10 42-9 64l5 26c7 32 28 52 58 60 16 4 34 0 51 0l2 4c-2 2-5 6-7 6-50 5-99-4-113-68-6-28-4-54-1-81 1-9 9-17 15-25 14-23 33-42 57-55 32-19 57-14 88 7l32 26ZM723 1164l7 5-2 4c-25 16-48 35-51 67-2 12-1 25 2 36 9 27 26 48 45 67 15 14 34 19 53 20 23 2 47 6 68-5 26-14 42-34 46-63l4-30c3 2 8 4 8 6 8 33-24 88-56 97-28 8-56 7-83 0-11-3-23-4-32-9-10-6-19-16-26-25-12-16-25-32-33-49-19-43-8-72 30-105l20-16ZM730 733l-8 9c-13-12-27-23-39-36a72 72 0 0 1-9-86c11-21 27-40 41-59 18-22 44-24 68-27 20-3 41-2 61 2 30 6 45 29 52 57 4 12 5 25 6 38l-4 8-3-1-4-28c-4-40-44-74-81-70l-49 4c-29 5-48 25-62 49-10 16-20 34-23 52-5 36 14 62 43 81l11 7ZM1259 1077c6-3 9-7 12-6 31 6 77 26 83 66 4 29-2 58-13 86-19 48-61 65-106 77-50 14-85-31-99-66-1-3 1-7 4-10l13 23c20 41 66 57 110 36 20-9 40-19 54-34 12-11 17-30 23-47 6-19 11-39 5-60-10-34-35-52-67-61l-19-4Z" fill="#fff"/><path fill-rule="evenodd" clip-rule="evenodd" d="m1274 858-4-13 62-14c20-5 38 3 53 17 26 24 38 57 47 91 5 18-1 33-6 49-6 23-18 44-34 63-23 26-52 29-83 20l-38-13 2-9 43 14c29 9 70-10 85-39 12-21 22-42 25-66 2-19-5-37-13-55-14-31-33-56-70-62-20-4-38 3-55 10l-14 7ZM1261 830l44-17c28-14 47-48 42-79-4-25-9-50-24-72l-14-14c-23-19-48-32-77-35-39-3-66 17-83 51l-9 19c-2-4-5-6-5-8 2-35 56-78 90-72 30 4 56 17 82 34 21 14 28 34 37 54 10 23 13 49 10 75-2 21-14 37-32 47-15 9-32 14-49 21-2 1-7-2-12-4ZM921 634c-2-3-6-7-7-11-13-57-8-97 57-120 23-8 49-11 74-13 9-1 18 8 28 12 27 11 50 29 67 52 18 25 15 53 3 80-5 11-12 21-19 31-1 2-6 3-9 4l-1-3 18-30c19-34 10-79-25-104-16-12-33-22-51-30-27-11-53-1-79 7a81 81 0 0 0-58 61c-5 19 1 38 5 56l1 5-4 3ZM1115 1236c3 1 7 1 9 3 16 20 27 43 29 69 1 16-5 32-15 46-23 30-56 46-90 60-8 3-19 0-29-1-30-3-58-11-82-28-23-17-30-42-28-69l6-36c0-4 4-6 6-9l4 2-8 40c-2 31 16 62 43 75 24 12 49 19 76 19 30-1 53-19 75-37 14-11 24-26 28-44 7-29-2-52-17-75l-9-12 2-3ZM1070 849l-7 1c-2-33 1-58 24-68 10-4 23-3 34-3l46 5c-2 22-2 45-6 68-3 19-27 31-45 28l-33-3 3-10c15 8 30 8 45 1 12-6 17-15 18-28l2-32c0-4-3-11-6-11-15-3-31-5-46-4-24 1-34 29-29 56ZM1086 1038l-3-10 2-1 35-2c20-2 40 14 44 37v30l3 29-61 6c-20 1-38-13-42-32-2-12-2-25-3-39h9v2c-4 30 6 51 30 54 14 3 30-1 45-4 2 0 5-8 6-12l-2-24c0-30-24-47-54-38l-9 4ZM835 1179c-6-21-14-42-18-63s11-38 31-43c11-2 23-6 35-10v8c-11 3-23 4-33 10-18 10-23 25-16 45l7 21c2 12 8 15 19 11l23-5c19-3 30-15 29-34l-6-36 5-3c5 19 15 37 10 57-4 19-20 28-38 32l-48 10ZM882 841l-37-10c-18-4-32-25-28-44 5-21 12-41 18-61l59 14c21 5 32 29 28 48l-11 36-9-4c12-12 10-28 10-43-1-10-14-23-26-25l-31-6c-3 0-10 1-10 3-6 15-13 31-13 47-1 21 18 35 42 35 6 1 13-1 8 10ZM833 1014l9 1c-5 13-11 24-17 36-9 20-34 27-56 16l-49-25c8-19 15-38 25-56 10-20 33-27 54-17l31 14-5 9c-12-13-26-19-42-16-9 2-19 7-24 14-8 11-12 24-16 37-1 3 2 10 5 12 7 6 16 9 24 14 28 15 47-2 57-24l4-15ZM720 863l54-27c22-9 43 0 53 22l15 31c-6 3-8 3-10-5-8-27-24-40-45-37-10 2-20 9-29 14-19 10-19 10-11 28l5 12c13 32 43 39 69 15l4-3 6 10c-17 6-31 13-47 16-20 4-34-6-42-25l-22-51ZM1007 819c-5-7-4-9 4-11 24-10 37-35 26-54-6-12-16-23-25-33-2-3-10-2-13 0-9 4-18 10-26 16-22 16-22 37-3 61l9 9-6 6-2-3-17-25c-15-21-11-45 10-59l47-31c10 13 20 29 32 42 18 19 12 53-10 64-10 4-17 12-26 18ZM973 1091l4 4c-6 12-14 23-18 34-6 15 0 31 14 39l26 16c6 4 11 5 16-3l13-17c22-27 14-53-18-67-3-2-4-6-6-8l3-3 32 22c17 14 20 39 7 57l-18 23-16 23-48-32c-21-14-25-38-10-59l19-29ZM1111 941l-4-4 22-25c13-18 46-19 60-1l19 22 16 23-36 39c-14 16-45 16-59-1l-21-26c3-4 3-4 8 4 11 14 24 26 43 21 9-2 18-9 25-16 26-24 25-25 1-49-25-25-49-23-69 7l-5 6ZM386 748c-35 6-71 12-102 31-31 18-60 38-92 58l-8-9c56-56 121-89 202-80ZM185 1076l8-8 91 58c32 19 67 25 105 31-81 11-156-28-204-81ZM449 1534c71 1 138-9 200-51-10 15-49 43-70 51-38 14-77 20-117 18-15 0-18-4-13-18ZM648 419c-14-7-28-16-42-21-25-9-50-17-75-22-24-4-49-4-73-5-7 0-12-2-11-8 0-4 6-9 10-10h37c34 2 67 9 97 24 21 10 39 26 59 39l-2 3ZM303 544c11 69 32 133 81 186-25-16-45-37-60-62-20-35-31-71-35-110-2-15-2-15 14-14ZM385 1177c-24 25-43 53-55 85-13 32-23 65-26 99-17 1-17 1-15-15 5-51 22-97 54-136 11-14 26-25 39-36l3 3ZM666 1491c-8 74 19 139 55 201-14 10-14 10-22-5-16-27-31-54-38-85-6-29-11-58-2-88l3-23h4ZM1587 961c76 19 122 72 156 141l-13 9c-35-62-78-116-143-150ZM953 1744l-10-12c55-46 101-98 122-168-2 64-40 130-112 180ZM1065 340c-21-69-66-121-122-167l10-12c63 44 106 100 112 179ZM1590 943c22-16 47-33 70-53 17-16 32-37 46-56 9-13 16-26 24-40l13 9c-33 68-79 122-153 140ZM721 212c-37 63-63 128-57 203-8-32-13-63-7-95 7-38 22-71 42-103 8-14 8-14 22-5ZM1451 340l14-3c19 75 17 146-30 212 7-23 15-44 19-67s4-46 3-70c0-23-4-47-6-72ZM1435 1357c50 67 48 149 29 211l-14-4c12-70 15-140-15-207ZM1254 228c-66 24-127 56-170 114 21-50 57-83 104-106l45-18c11-5 20-7 21 10ZM1447 1344c71 18 139 3 206-22l5 15c-69 31-139 42-211 7ZM1447 561c42-24 115-37 211 6l-5 16c-67-25-135-40-206-22ZM1254 1677l-5 15c-73-21-133-56-166-128 44 57 105 89 171 113ZM1033 952c-2-37-27-66-66-66-40 0-67 28-67 66 0 39 27 67 67 67 38 0 64-29 66-67Zm-139 0c-4-40 31-74 78-74 33 1 69 40 69 75-1 35-36 74-69 74-43 0-81-30-78-75ZM1241 1539l35-5c5 20 18 38 9 58-3 8-11 17-18 19-10 1-19-7-20-18l-6-54ZM1276 370l-35-3 6-54c1-11 9-20 19-19 8 2 16 12 19 19 6 19 4 24-9 57ZM1592 1121l52-4c12-1 22 6 23 16 0 7-7 17-14 22-18 11-38 5-57 3-2 0-4-5-4-8v-29ZM907 1598l15 46v7c1 11-4 22-14 23-7 1-17-5-22-10-14-17-13-38-12-59l33-7ZM1579 705l-24-24c8-9 15-20 24-29 6-5 14-11 21-13 6-2 18-1 20 2 4 7 5 18 2 25-6 10-16 19-25 28-5 5-12 8-18 11ZM1554 1224l26-26c12 11 26 21 38 33 9 8 8 20 4 31-2 7-21 9-29 1-12-10-22-21-32-32l-7-7ZM1594 784l-2-4 2-32c14-1 29-4 43-3 9 1 19 7 25 14 10 12 2 28-15 28-18 0-36-2-53-3ZM871 299l10-50c1-5 6-10 10-13 6-3 15-7 18-5 6 5 13 15 12 21-2 19-8 37-13 55l-37-8ZM833 306l-33 20c-10-15-22-29-31-44-5-8-2-27 5-29 9-3 21-3 28 6l31 47ZM800 1579l33 20c-11 16-20 32-31 46-6 8-24 11-29 6-7-8-10-19-4-29l31-43ZM475 1393l32 16-23 49c-5 10-15 14-26 11-7-1-13-19-10-28l10-26 17-22ZM1336 421c-5-7-9-14-15-20s-5-11 0-16l33-27 4-2c10-2 22-2 28 7s3 20-6 27l-44 31ZM507 496l-34 17c-9-16-18-32-25-49-4-9 3-27 10-28 11-3 21 1 26 11 9 16 15 32 23 49ZM1336 1485l32 20 12 9c8 8 11 18 7 28-4 8-21 11-30 5-14-8-26-19-38-30-2-1-1-8 1-10 4-8 10-15 16-22ZM308 975l12 32c-15 7-31 16-48 22-6 3-16 0-23-3-9-4-7-21 3-30 16-15 36-18 56-21ZM437 1325l4 16c5 19 5 20-12 28-12 5-24 7-37 8-10 2-19-5-23-14-3-7 6-21 16-24l52-14ZM320 898l-12 31c-20-1-41-4-55-20-6-6-10-19-8-26 4-9 17-13 28-8l47 23ZM436 580l-49-14c-3 0-6-1-7-3-4-7-12-17-10-22 2-6 13-11 21-13 19-4 35 6 51 16 2 1 3 7 2 10l-8 26Z" fill="#fff"/><path fill-rule="evenodd" clip-rule="evenodd" d="M1043 515c15 18 17 37 9 56-8 18-18 35-28 53l-9-49c-4-22 9-50 28-60ZM651 840c-20-1-40-1-59-4-16-2-30-10-39-25-5-8-4-13 5-16 17-5 33-3 47 6l47 36-1 3ZM1298 952c24-7 45-16 66-19 13-2 27 5 40 11 8 4 6 14-4 19-16 9-33 13-52 7l-50-18ZM1024 1279c11 22 23 41 30 62 3 11 0 26-3 38-4 12-11 13-19 3a62 62 0 0 1-16-55l8-48ZM652 1068l-47 36c-15 9-31 11-48 5-7-2-10-6-5-14 9-15 23-24 40-26 19-3 39-3 59-4l1 3ZM796 662c-14-13-31-25-42-40-8-11-12-26-14-40-2-13 6-17 18-11 14 8 25 20 29 35 6 18 8 36 12 54l-3 2ZM800 1245c-5 21-9 43-17 63-5 10-16 18-25 25-11 8-18 3-18-10-1-24 12-42 29-57l28-23 3 2ZM1223 1170c28 10 60 13 77 41l6 18c1 10-5 13-14 11-19-4-35-14-45-31l-24-39ZM1223 734c12-18 22-37 36-52 9-9 23-13 36-17 6-3 14 2 11 10-5 12-9 27-19 33-19 13-41 20-61 30l-3-4ZM953 1434l31 8 19 7 14 2 4 1c5 6 11 8 18 4 2-2 5 1 8 1 3 1 6 3 8 2l29-16 4-4c12-1 18-11 27-18l21-16c3-3 5-8 7-12 6 20-30 53-66 69-39 17-101 2-124-28ZM954 471c19-27 80-45 114-33 35 14 78 47 75 73l-21-24c-7-7-15-13-24-19l-28-13-7-5-16-2h-18c-13 10-31 4-44 14-8 7-21 6-31 9ZM815 497c-11 5-22-5-34 1-6 4-16-2-24-1-11 1-22 4-37 8-6-3-13 0-19 11-5 9-15 15-22 24-5 7-8 16-12 23l-12 19-6 16c-12-26 19-72 49-96 25-19 96-27 117-5ZM650 1306c-1 14 25 58 34 64l15 15 4 6c2 3 3 7 5 7l32 6 8 1 13 1 3-1c17 8 34 1 50 3-16 21-88 15-114-4-31-22-64-73-50-98ZM1267 1328l37-13c8-3 15-9 23-14 1-1 2-2 3-1 10 2 14-4 16-13 11 1 19-1 17-15-1-2 2-4 4-6s5-4 5-6c-2-14 9-25 10-37 1-14 5-26 8-40 10 36 3 70-17 99-24 35-63 49-105 50l-1-4ZM490 1024l-4 32 2 1c-2 1-5 3-5 5l1 28-2 7c-1 12 3 23 0 34 14 2 10 21 24 24 6 1 9 11 15 17l22 20c3 3 6 7 10 9l11 1c-20 13-61-24-84-55-19-26-13-106 10-123ZM485 847l5 33c-23-18-29-86-11-119 20-37 63-67 82-60l-25 16c-8 6-18 13-23 21-4 10-19 13-18 26l-2 3c-11 5-16 12-7 24l-3 4-3 5 4 30c1 6-7 14 1 17ZM1439 1048c4-11 6-26 12-29 12-4 5-18 15-21-5-12 15-18 8-30-1-1 1-4 2-6 2-2 5-6 5-8-3-11-8-22-12-32l-2-2c-1-14-6-24-16-34-7-7-8-19-13-31 34 24 47 57 53 93 4 32-27 88-52 100ZM1391 722c-12-8 2-24-12-31 9-7 1-14-2-19-5-11 0-26-13-34-1-1-2-4-1-5 2-13-5-17-17-15-2-10-7-16-16-12-18-17-43-19-66-32 44-2 79 12 104 42 24 30 31 67 23 106ZM305 967c-19 4-38 10-58 1-8-3-15-7-14-16 0-9 6-13 14-15 15-5 29-8 44-2l14 3v29ZM865 300l-26 3c-11-18-20-38-12-60 2-5 8-13 12-13 5 0 12 5 16 9 14 18 11 40 10 61ZM839 1601l26 4c1 21 4 41-9 58-4 6-11 12-16 12-5-1-11-9-13-15-8-21 1-40 12-59ZM452 1367l16 21c-11 16-22 35-45 39-6 1-15 0-18-3-3-5-3-14 0-20 8-20 26-29 47-37ZM452 538c-19-7-36-16-46-33-4-8-9-17-2-23 5-4 15-4 22-3 21 4 31 23 43 38l-17 21Z" fill="#fff"/><path fill-rule="evenodd" clip-rule="evenodd" d="m1106 663-5-2c41-73 2-116-59-153 27 1 74 33 85 59 17 37 2 67-21 96ZM1582 714c18-13 35-25 58-21 5 1 13 4 15 9 2 4-2 11-5 15-14 17-33 21-54 22-2 0-5-4-7-7l-7-18ZM1307 386l-22-12c4-20 9-39 26-51 6-4 15-6 22-5 3 1 6 12 6 18-1 16-8 30-21 40l-11 10ZM1103 1244s4-1 5 1c19 24 33 51 22 83-4 13-12 25-22 34-18 16-37 31-62 36l12-14 16-9c30-19 44-47 43-82 0-16-9-32-14-49ZM1285 1532l23-14c17 15 31 30 31 53 0 6-3 15-6 16-6 1-15 0-20-4-12-9-21-20-24-35 0-6-3-11-4-16ZM1581 1192c6-10 10-24 15-25 23-1 44 5 58 25 6 7 0 20-10 20-9 1-20 1-28-2-12-4-23-12-35-18ZM938 1271c-5 33-1 61 21 85 17 20 39 28 63 33 6 1 12 5 19 8-14 8-27 1-38-2-18-6-38-12-53-23-26-21-30-51-22-82l5-15 5-4ZM937 632c-12-4-17-50-7-71 17-36 82-68 112-51-11 3-19 6-28 7-37 8-62 29-73 64-5 16-3 34-4 51ZM537 1102v-48c0-10 3-20 6-30 7-25 25-40 48-47 16-4 34-1 51-1 2 0 4 3 6 5l-33 3c-37 6-70 50-69 88l-3 31-6-1ZM543 802l3 30c1 38 20 66 52 83 14 7 31 7 47 11l-1 3c-48 10-99-8-106-69-2-19-4-38 1-58h4ZM1316 666c12 16 16 36 21 55 6 26 1 48-15 68-16 21-39 25-62 31l-4-4c10-4 19-7 27-12 36-22 51-72 35-114-3-7-4-15-6-23l4-1ZM1257 1089c2-2 3-4 5-4 33 1 71 30 76 62 3 18-2 37-6 54-3 13-9 26-14 39l-6-2c3-10 4-20 8-30 16-49-12-106-61-117l-2-2ZM739 726h-7c-30-19-54-43-48-81 3-19 14-36 24-53 6-11 17-19 26-29l4 3-24 37a92 92 0 0 0 25 123ZM735 1341c-20-15-34-35-45-57-23-48 8-85 43-105 2-1 4 0 10 1a87 87 0 0 0-42 90c3 20 14 37 26 52l11 17-3 2ZM881 644c-2-43-27-67-62-81-13-5-29-2-44-2h-32c22-14 46-13 70-13 52 0 75 47 74 91l-6 5ZM743 1342l35 4c43 6 92-24 101-69 0-5 1-9 5-15l2 14c-1 31-12 57-40 73-10 5-22 7-34 8-24 1-48 1-69-15ZM704 769a94 94 0 0 0-139 9c-5 6-12 11-18 16l-4-2c3-5 5-11 9-15l39-38c24-22 70-18 94 6l17 17 2 7ZM547 1110c6 6 14 12 19 19 14 17 32 27 53 32 32 7 59-3 84-27v9c-20 22-42 39-73 38-10 0-22-3-30-9-18-15-34-32-51-49-3-2-4-6-5-9l3-4ZM1306 1245c-26 36-83 48-119 29-22-11-30-33-39-54-1-1 2-4 4-8 16 40 46 56 84 56 17 0 35-10 52-16l18-7ZM1150 690c0-2-2-5-1-8 12-28 27-52 60-60 22-5 41 1 60 10 14 6 26 15 40 23l-3 5-18-7c-39-23-75-23-110 3-11 9-18 22-28 34ZM913 1595l34-20c7 13 16 26 22 40 2 6 1 16-3 19-4 4-16 6-20 3-10-8-18-18-26-28-4-4-5-9-7-14ZM947 330l-34-21c8-16 14-36 35-41 6-2 15-1 18 2 4 4 6 14 3 18-6 15-14 28-22 42ZM772 1546l23 28c-10 13-22 26-40 28-6 1-16-1-20-5-3-5-3-15 0-21 8-15 22-23 37-30ZM349 863l-26 29c-15-9-31-18-34-39-1-6 0-15 3-17 5-4 16-5 20-2 14 8 25 19 37 29ZM773 358c-16-6-30-14-37-29-3-5-4-16-1-20 3-5 13-7 20-6 18 2 29 15 40 27l-22 28ZM349 1041c-11 10-22 21-35 29-5 4-15 2-21 0-8-4-6-11-4-19 4-19 19-29 34-39l26 29ZM1236 367l-36 6a72 72 0 0 1-10-51c2-11 19-17 26-9 7 9 13 21 17 32 3 6 2 14 3 22ZM512 493c-5-18-12-36 0-54 9-13 23-14 29 1 5 15 7 31 11 47l-40 6ZM512 1411l36 6c2 16 2 33-7 48-8 14-20 14-29 1-10-14-6-29-3-44l3-11ZM1196 1532l40 6c-3 17-1 36-16 49-4 4-12 7-18 7-9-1-13-9-12-18l6-44ZM435 584v39h-47c-5-1-12-9-13-14s4-13 8-17c13-10 28-8 43-8h9ZM435 1279v41c-16 0-33 4-48-5-8-5-14-10-13-20 2-11 11-15 21-15l40-1ZM1222 1393c31 29 56 60 60 104-28-5-62-77-60-104ZM877 450c-19-36-34-74-21-120 30 38 27 79 21 120ZM877 1455c6 41 9 82-21 120-13-46 2-83 21-120ZM1549 676l-31-17c3-17 10-33 24-43 4-4 12-5 16-4 5 2 9 9 10 15 4 19-6 35-19 49ZM1592 786c14 8 28 15 41 24 8 5 11 15 5 24s-15 10-23 6c-13-4-26-10-38-15l15-39ZM1577 1080c13-5 25-12 39-16 6-1 16 2 21 7 7 6 4 15-2 22-11 15-28 20-45 23l-13-36ZM1280 408c-2 44-27 75-58 102 7-41 21-78 58-102ZM1514 1248l35-20c12 15 23 30 19 50-1 5-5 12-10 15-4 2-14 0-16-4l-28-41ZM1339 1479l12-35c16 2 32 5 46 15 7 5 10 13 6 20-2 5-10 11-15 11-12 0-24-2-35-5-5-1-10-4-14-6ZM1338 422c16-2 31-6 47-7 8-1 16 2 19 11 2 10-2 18-10 22l-42 15-14-41ZM1354 1439l-4-39h48c8 0 16 7 15 15-1 7-8 17-14 19-14 4-30 4-45 5ZM337 951c40-19 79-13 118 0-28 18-102 20-118 0ZM1353 469c15 0 29-2 43 0 10 2 18 10 17 22s-12 15-22 16l-41-2 3-36ZM593 497l-39-11c4-13 6-28 11-42 4-10 14-14 24-11s13 11 11 20l-7 44ZM355 1047l30 13c-5 17-10 36-27 46-5 3-14 4-17 1-5-4-9-12-9-19 0-18 12-30 23-41ZM317 1182c-48 11-98 2-148 0l-4-24 152 24ZM385 845l-30 13c-11-11-23-22-22-40 0-7 3-16 8-20 3-3 14-1 19 2 16 11 20 28 25 45ZM557 1418l33-9c9 15 12 32 10 50-1 5-6 12-11 13-6 1-15-1-19-5-13-14-14-32-13-49ZM759 1505l9 35c-12 5-24 11-36 14-7 1-16-2-23-6-8-5-7-15 0-23 13-15 31-16 50-20ZM1652 945c48-19 92-45 135-76l7 27c-47 17-90 44-142 49ZM1442 780c35-28 70-49 118-44-33 36-74 40-118 44ZM318 723l-153 24 4-24c49-2 99-10 149 0ZM1193 1532l-23 34c-7 10-18 10-27 5-10-6-9-16-4-25l20-33c2-2 8-2 10 0l24 19ZM1190 376l-21 16c-2 2-8 2-9 0l-23-37c-4-8-2-17 6-20 7-3 18-2 24 2 14 8 20 23 23 39ZM1442 1125c44 3 85 8 118 44-48 5-83-16-118-44ZM759 399c-17-2-33-4-46-15-6-5-14-11-8-21s15-15 26-12c13 3 25 9 37 14l-9 34ZM576 625c-39-16-75-34-91-76 44 8 68 42 91 76ZM578 1278c-36 53-68 80-95 78 18-42 54-61 95-78ZM972 364l-19-30c8-13 18-24 33-29 10-3 19-2 26 7 6 10 1 18-5 24l-35 28ZM953 1571l18-28c16 7 31 17 41 33 6 13-2 26-16 25-21-1-32-15-43-30ZM1652 960c51 4 94 32 142 49l-7 27c-43-31-87-57-135-76ZM618 360l-131-78 17-16c38 28 81 55 114 94ZM1511 1251c2 12 5 25 6 38 1 12-6 20-17 23s-18-6-20-15c-4-14-4-30-7-46h38ZM1551 858l22-30c12 11 23 19 32 29 4 5 4 15 4 22 0 8-11 13-19 11-19-6-30-22-39-32ZM1573 1078l-22-30c2-8 27-32 40-33 5 0 14 3 16 7 2 6 3 17 0 22-9 12-21 21-34 34ZM503 1641l-17-17 131-79c-31 40-75 65-114 96ZM437 631l15 30c-14 9-29 20-48 18-6 0-14-4-16-9s-1-15 3-18c10-8 21-13 32-19l14-2ZM1494 518c5-4 9-8 14-10l120-41c4-2 10 3 13 6l8 15c-53 5-105 12-155 30ZM454 1241l-19 36c-14-7-29-12-41-21-5-4-7-15-6-22 2-7 11-11 19-8l47 15ZM1488 1395c4 5 9 10 12 16l58 105c5 9 5 16-6 21l-8 5-56-144v-3ZM1511 654h-38c3-16 3-32 7-46 2-8 9-18 20-15 11 2 18 11 17 22-1 14-4 27-6 39ZM322 1193l-101 116h1c-16-17-17-18 0-34l83-72 17-10ZM1507 1372c52 5 102-4 149-26 9 19 5 28-18 31-41 7-90 10-131-5ZM1544 363c4 2 10 5 15 10 1 1 3 6 2 8l-63 115c-2 5-6 9-10 11l56-144ZM1494 1387c50 17 101 25 155 30l-8 15c-3 4-10 8-13 6l-120-41c-5-2-9-7-14-10ZM1657 560c-48-24-98-32-151-28 35-10 69-12 104-7 10 1 20 1 29 3 21 3 24 9 18 32ZM1077 1629c5 52-14 100-23 148l-28-1c23-47 42-95 51-147ZM1054 128c9 49 28 96 24 148-11-51-29-99-52-147l28-1ZM223 595l48 60c17 19 35 37 51 57-8-5-18-9-25-16l-77-69c-14-13-14-13-2-28l5-4ZM1166 146l24 12c-37 37-70 76-98 120 15-49 48-88 74-132ZM1092 1627c28 44 61 83 98 120l-24 12c-27-43-58-83-74-132ZM1475 493c14-68 9-97-1-154 25 0 28 3 27 27-1 41-6 81-22 119l-4 8ZM1477 1412c5 18 13 36 16 54 4 25 7 50 8 74 2 21 1 22-20 26l-8 3c12-53 16-105 0-156l4-1ZM627 1704c-21 0-27-6-24-27l16-98c1-10 5-19 11-29l-6 76c-1 26 2 51 3 78ZM646 1553c3 55 22 103 53 148-21 11-30 8-36-14-13-44-23-88-17-134ZM699 202c-50 81-46 106-56 150 2-23 1-46 5-68 3-22 9-43 14-64 6-23 13-26 37-18ZM627 356l-9-36-15-96c-2-19 4-24 25-22-7 51-6 102 4 153l-5 1ZM1654 976c17 12 35 23 51 36 17 14 33 29 48 45 17 18 18 18-4 40-24-47-53-89-98-117l3-4ZM1751 810c20 20 18 20 3 37-29 32-61 61-100 80 18-18 37-34 54-54 16-20 28-42 43-63ZM1244 1698c-13 21-15 28-40 11-26-20-51-42-76-64-7-6-13-14-18-22 38 38 83 61 134 75ZM1243 205c-24 10-49 19-71 31-22 13-41 30-64 43l49-47c14-13 30-24 46-35 27-18 27-12 40 8ZM315 742c-52 13-95 41-133 78-13-20-11-29 8-38 36-18 73-34 113-40l6-1 6 1ZM181 1085c39 37 82 65 134 77l-1 3c-16-4-33-6-49-11-25-9-50-21-75-31-16-6-23-14-9-38ZM279 1358l-24-16c15-47 37-90 72-126-28 42-42 90-48 142ZM327 689c-35-36-57-79-72-126l24-16c7 52 19 99 48 142ZM1060 1637c-6 14-10 28-17 41-13 23-28 46-43 68-13 18-21 19-40 2 42-29 75-66 97-113l3 2ZM960 157c21-16 28-16 41 3l52 89c3 6 4 13 5 20-23-46-56-83-98-112ZM450 345c4-24 11-28 32-21 33 10 66 22 98 34 6 2 12 7 17 12-47-21-96-27-147-25ZM598 1537c-12 6-23 14-35 18-28 10-57 20-85 28-18 5-24-1-28-24 51 3 100-3 147-25l1 3ZM566 690c-50 9-83 38-99 81-15 43-10 87 24 124-34-8-45-74-34-119 10-41 71-101 109-86ZM567 1215c-41 14-100-46-110-85-10-44-2-109 34-121-34 38-39 83-23 125 15 43 49 73 99 81ZM826 493c-42-25-86-23-125 0-40 23-64 60-63 111-8-14-10-24-3-40 18-41 41-77 88-88 27-7 55-13 82-1 8 4 16 10 23 15l-2 3ZM637 1303c0 49 24 86 63 109 40 23 84 25 126 0-3 9-18 20-33 22-32 5-63 1-91-12-32-16-51-45-65-76-6-14-8-28 0-43ZM1137 1015l78 12h2c6 5 14 9 19 15 1 3-1 10-4 14-7 7-17 6-25 1l-70-42ZM1137 890l70-43c4-2 10-4 13-2 6 2 15 6 15 10 1 6-3 15-8 17-12 6-26 8-40 11l-50 7ZM936 1133l-1 82c0 4-1 10-4 13-4 3-11 8-16 7-4-1-8-9-10-14-2-4-2-10 0-14l29-74h2ZM934 772l-30-75v-4c-1-13 4-23 13-24s19 10 19 23v79l-2 1ZM940 472c3-13 11-23 22-30 53-28 105-32 156 7 20 16 38 32 37 60-17-45-52-72-97-79-44-8-87 5-118 42ZM938 1430c70 78 182 52 218-34l-1 13c-6 23-24 37-43 50-22 15-45 28-73 26s-55-8-79-24c-10-6-19-15-22-31ZM1057 794l27-77c1-4 4-8 8-9 5-3 12-5 18-4 3 1 6 9 5 14 0 6-2 13-6 17l-52 59ZM824 1072l-19 24-26 33c-4 4-8 10-12 10-7 1-17 0-22-4-3-2 1-13 3-20 1-3 5-6 9-8l60-32 7-3ZM1060 1113l49 56 4 4c5 9 4 26-3 28-10 4-20 0-24-10-11-25-19-51-28-77l2-1ZM820 832l-68-38-3-3-4-22c7-1 16-4 23-2 5 1 10 8 14 13l40 49-2 3ZM1393 738c17-48 9-92-20-127s-70-51-120-42c28-26 94 3 124 34 28 30 47 109 16 135ZM778 954l-72 14h-10l-18-16c6-5 11-12 18-14s15 0 23 2l59 11v3ZM1395 1169c29 26 10 101-18 132-26 29-92 61-125 35 51 9 92-8 121-43 29-34 38-78 22-124ZM1436 1063c41-26 61-66 61-111 0-44-20-84-62-107 7-3 17 0 26 10 37 36 59 98 30 153-12 22-22 43-47 53l-8 2ZM424 844h-31c-4-15-10-29-3-45 3-8 9-12 19-11 9 0 11 7 11 13l4 43ZM393 1061h28c3 15 5 31-1 46-2 4-7 10-10 10-6-1-14-3-17-7-8-10-8-22-4-34l4-15ZM1468 654l-27 10c-7-14-16-27-14-45 1-11 11-19 20-12 8 5 14 15 18 23 3 7 2 16 3 24ZM1441 1241l29 10-12 39c-3 7-11 12-21 9-10-4-14-18-9-32l2-5 11-21ZM1347 1395l-16-27 41-19c4-1 11-1 13 2 5 6 10 15 3 21-9 8-20 14-31 20-3 2-7 2-10 3ZM759 407l5 27c-17 7-35 13-54 5-8-28 4-36 49-32ZM1331 538l17-30c11 6 24 11 35 19 10 7 10 17 3 26-2 3-8 5-10 4l-45-19ZM1144 1477l16 28-34 22c-9 4-16 1-22-7-7-9-3-16 5-21l35-22ZM710 1466c19-8 36-2 54 5l-5 26c-37 9-56-3-49-31ZM1513 870l30-12 17 34c3 10-3 20-13 24-6 2-12 2-15-6l-19-40ZM1543 1047l-30-12 17-38c5-11 14-12 21-5 5 4 10 14 8 21-3 12-10 23-16 34ZM1160 399l-16 29c-12-8-25-15-37-24-7-4-8-10-3-18 4-8 12-12 18-9 13 6 25 15 38 22ZM980 400l-6-27 2-5c14-7 28-15 44-8 5 3 8 9 10 14 3 7-1 13-8 15l-42 11ZM597 1403l23-17c9 10 17 20 24 31 4 6 10 13 1 19-8 7-18 9-26 1-8-6-13-16-18-24-2-2-3-6-4-10ZM480 1218l-25 22-27-32c-6-8-2-16 5-23 8-7 14-2 18 2l29 31ZM480 687l-29 31c-5 4-10 9-18 2-7-7-11-15-6-22 8-12 18-22 28-33l25 22ZM621 520l-26-20c7-10 13-21 22-30 3-4 11-6 17-6 12 0 19 9 12 20-7 12-16 23-25 36ZM974 1535l5-30c15 4 30 7 43 12 4 1 7 8 8 13 2 7-2 12-9 15-18 7-32-1-47-10ZM634 321V199h24l-24 122ZM635 1577c1 44 13 87 27 129h-24c-7-20-10-70-3-129ZM1216 1728l-21 15-79-92 1-1 99 78ZM1116 254l79-92 21 15-99 77h-1ZM584 347l-118-37 9-16c2-2 8-2 11-1l99 53-1 1ZM585 1559l-98 53c-7 3-10 3-13-4l-8-13a552987 552987 0 0 1 119-36ZM302 1226l-56 107-20-16 75-93 1 2ZM226 588l20-16 56 107-1 1-75-92ZM282 735l-112 46-4-25 116-22v1Z" fill="#fff"/><path fill-rule="evenodd" clip-rule="evenodd" d="M1560 1157c-36-33-80-37-124-41 29-11 58-12 87 1 21 9 37 26 37 40ZM282 1171l-116-22 4-26 112 47v1ZM1432 788c48-4 92-7 129-38-1 4-1 8-3 11a99 99 0 0 1-54 34c-22 5-51 3-72-7ZM871 331c3 2 8 4 10 7 22 27 29 57 20 91-3 10-7 21-13 31 2-44 6-87-20-127l3-2ZM887 1445c31 50 15 114-20 129 26-42 24-85 20-129ZM996 138l25-8 42 112h-1l-66-104ZM1432 1128c35 27 71 51 120 51-4 3-7 7-11 7-32 4-62-2-85-26l-27-28 3-4ZM477 1345c0-4-2-9 0-13 13-35 40-54 75-63 9-2 19-3 29-3-41 19-80 39-104 79ZM581 638c-19 1-37-3-54-11a96 96 0 0 1-49-52c-2-4-2-10-1-16 24 41 63 61 104 79ZM1431 776c27-52 93-73 122-48-50-3-86 22-122 48ZM1655 1386c0 19-3 24-21 22-35-5-69-11-103-18l124-4ZM1208 519c-5-31-1-60 16-86 17-23 31-32 45-29-36 30-50 71-61 115ZM1063 1663l-42 111-25-8a1992983 1992983 0 0 1 67-103ZM1267 1502c-21-2-35-16-44-32-16-26-21-54-14-84 11 43 23 85 58 116ZM873 463c-25-16-54-66-40-109 2-6 5-11 10-16-6 46 11 85 30 125ZM1494 469c4-20 9-39 12-59s3-41 4-62l5 1c21 9 21 3 14 28-9 31-21 62-31 93l-4-1ZM1498 1435l34 104c2 6 0 11-7 13l-13 4-16-120 2-1ZM1655 519l-123-5 62-12 34-5c21-4 27 1 27 22ZM874 1442c-20 39-38 79-28 127-5-4-10-6-11-9-15-36 2-93 35-118h4ZM495 538c4-1 8-3 11-2 48 11 74 44 84 88l-1 6c-25-39-50-74-94-92ZM496 1365c43-17 68-51 93-87-7 35-22 65-56 81-12 6-24 13-37 6ZM1685 981l100 61-12 22-89-81 1-2Z" fill="#fff"/><path fill-rule="evenodd" clip-rule="evenodd" d="M1536 711c-49-6-82 19-110 55-8-10-8-11-1-21 21-29 50-43 86-43l25 3v6ZM1773 841l12 22-100 61-1-2 89-81ZM470 935c-38-25-77-36-122-18 2-3 5-8 8-9 35-17 81-17 111 10 3 3 4 9 7 14l-4 3ZM471 956c-23 25-67 39-103 30-17-5-26-11-27-21 44 16 85 7 130-9ZM470 1328c-4-18 5-29 13-40 20-24 45-40 77-42 10 0 10 0 14 12-45 5-83 23-104 70ZM576 651c-5 3-11 8-16 8-34 0-74-28-90-65-2-4-1-9 0-15 21 45 58 63 103 68l3 4Z" fill="#fff"/><path fill-rule="evenodd" clip-rule="evenodd" d="M348 985c45 21 84 10 122-15l3 12c-42 34-109 37-125 3ZM470 948c-43-15-85-24-129-8l-2-4 11-9c36-18 71-13 105 8l13 8 2 5ZM1426 1139c28 35 61 61 110 58l-9 5c-39 6-80-10-102-42-5-7-8-14 1-21ZM828 347c-16 49 4 86 34 120l-10 6c-41-34-55-100-24-126ZM851 1432l11 5c-30 34-50 71-35 119-11-7-15-15-15-36-1-35 11-66 39-88ZM1289 415c11 9 7 20 6 29-8 42-37 65-74 82 30-32 61-63 68-111ZM1289 1489c-7-48-38-79-68-110 38 17 67 41 74 84 1 8 5 19-6 26ZM598 619c-32-65-32-65-85-90l12-4c38 8 79 47 81 80 0 5-3 10-4 15l-4-1ZM597 1285c15 6 10 17 7 24-13 37-40 60-78 70-3 1-8-1-12-3 46-13 70-47 83-91ZM891 1566c28-38 25-78 7-120 7-3 11-4 16 3 12 20 13 42 10 63-3 15-11 30-17 44-3 5-9 9-13 13l-3-3ZM894 336c3 3 9 5 11 9 20 32 27 67 13 103-3 7-6 18-20 11 17-41 22-81-7-120l3-3Z" fill="#fff"/><path fill-rule="evenodd" clip-rule="evenodd" d="M1308 434v22c-3 33-33 72-62 82-8 3-12 1-15-7 40-20 68-50 73-97h4ZM1304 1473c-5-49-33-79-73-99 3-10 9-10 16-7 31 14 50 38 59 71 3 11 7 22-2 35ZM1246 398c-38 30-48 64-49 114-11 0-15-7-14-23 4-37 19-66 50-87 3-3 8-3 13-4ZM1437 1106c1-17 13-18 21-19 36-4 68 4 94 31 3 3 5 8 6 13-35-33-76-36-121-25ZM1438 800c44 9 85 7 119-27l3 3c-4 5-7 11-12 15-29 26-62 34-99 24-5-1-9-7-13-10l2-5ZM1198 1392c-1 45 8 85 49 112-12 6-19-4-25-9-27-24-41-55-37-92 1-5 6-9 9-13l4 2ZM824 715c-45-11-73 13-98 44-22 28-36 59-16 96-14-9-21-32-16-49 13-40 37-70 72-91 19-11 39-13 58 0ZM824 1189c-20 14-40 12-59 1-34-22-58-51-70-90-6-18 1-39 15-50-21 41-3 73 22 102 23 28 51 49 92 37ZM1017 1220c29 25 60 23 101 1 37-21 60-48 56-87 9 12 8 34-3 50-27 35-63 54-106 62-19 3-41-10-48-26ZM1017 685c8-17 32-30 50-26 40 9 76 26 102 60 12 16 15 34 6 53 3-47-26-72-62-90-31-16-63-25-96 3ZM1182 1128c40-6 60-33 72-66 13-36 20-72-12-103 8 0 14 5 20 15 13 18 12 38 8 59-7 28-18 55-38 78a62 62 0 0 1-39 19l-11-2ZM706 863c-40 18-49 53-48 91 0 37 9 71 48 88-18 2-39-13-46-35-12-36-12-73 0-109 7-22 28-36 46-35ZM1241 947c33-32 26-68 13-103-12-34-32-61-75-65 18-8 32-3 42 7 13 12 24 27 33 42 13 22 18 46 18 72 0 18-8 33-22 45l-4 2h-5ZM831 1193c10 37 36 52 68 60 41 10 81 12 110-29-1 14-16 34-33 36-21 4-43 5-65 3-17-2-34-11-50-19-17-8-28-23-31-42-1-3 1-6 1-9ZM833 713c-7-9-1-18 2-25 7-15 19-25 34-32 34-16 69-20 105-12 18 4 31 17 36 36-30-41-71-38-112-28-31 8-58 24-65 61ZM884 1413c-20-30 4-51 13-76 12 46 8 67-13 76ZM1699 958l99 20-3 24-97-41 1-3ZM897 569c-9-26-33-47-14-76 23 8 26 25 14 76ZM627 1301c-2 39-45 81-78 81l41-34c14-14 22-30 24-52l13 5ZM615 608c-8-41-34-67-73-86 24 1 41 11 55 25 8 7 15 16 21 25 4 7 6 15 8 22 3 10-3 14-11 14ZM665 700c-35-6-57-25-56-47 21-9 39 12 56 47ZM277 1214l-72 68c-13-15-13-19 4-30l56-35 11-5 1 2ZM193 644l10-22 75 69-2 4-83-51ZM1633 457l-100 31-1-2 55-31c6-3 13-5 19-10 10-8 18-6 23 6l4 6ZM1700 944l94-41 5 24-99 20v-3ZM1159 610c6-17 12-34 20-51 2-5 13-7 19-10 1 7 5 16 2 23-7 18-22 29-36 41l-5-3ZM609 1253c-3-23 21-42 55-47-13 31-33 55-55 47Z" fill="#fff"/><path fill-rule="evenodd" clip-rule="evenodd" d="M1435 820c43 13 79 6 112-16-8 15-21 24-36 28-14 5-28 8-42 9-9 1-19-3-28-7-2-1-3-7-6-14ZM1162 1294c16 11 33 22 39 42 2 5-1 13-2 20-6-3-15-3-18-8-7-11-12-24-16-37-2-5-2-11-3-17ZM1531 1417l52 15 49 15-2 5c-10 16-9 15-25 7l-64-35-10-7ZM1547 1102c-33-23-69-30-108-18l-3-3c2-4 4-10 7-12 30-14 86 2 105 29l-1 4ZM1250 557l-6-9c38-17 61-45 72-85 2 22-3 41-17 58-13 16-23 35-49 36ZM509 259l19-14 66 75-2 2-83-63ZM1178 509l-4 1h-8c-13-28 2-50 12-72 8-16 20-27 37-33-29 29-43 62-37 104ZM918 1441l7-2 4-2c25 28 21 91-10 116 17-38 20-75-1-112ZM1215 1500c-22-8-34-24-42-44-8-19-19-38-6-60h11c-6 41 8 75 37 104ZM1315 1442c-10-40-33-68-71-85l6-10c32 3 44 29 58 51 7 12 8 28 12 42l-5 2ZM923 355c27 26 31 83 7 113l-8-3c3-19 10-38 10-56s-6-37-9-54ZM528 1660l-19-14 83-63 2 1-66 76ZM594 1695l-2-1c-19-8-19-8-13-27l21-63 7-13-13 104ZM573 953c-24 6-48 25-73 1 7-20 34-19 73-1ZM605 313l-22-62-3-12c-7-22-7-22 14-29l13 102-2 1ZM566 671l-2 7c-27 9-45-8-64-20a70 70 0 0 1-30-43c13 11 26 26 42 36 16 9 35 13 54 20ZM470 1293c4-22 17-38 35-49s34-25 59-17l3 10c-43 2-73 23-97 56ZM1336 817c16-12 30-30 53-29 5 0 10 3 15 5-3 5-4 12-8 15-18 14-39 11-60 9ZM1336 1085l46 5c5 0 10 3 13 7 4 4 6 10 9 14-5 2-10 7-14 6-10-1-19-4-28-8l-27-20 1-4ZM846 1427c-33 29-44 60-40 108a68 68 0 0 1-9-49c2-13 6-27 12-39 5-9 13-17 21-24 2-2 9 2 16 4ZM1586 1506l-17 17-44-88 3-2 58 73ZM1586 399l-58 73-3-2 45-89 16 18ZM806 371c-5 42 6 77 36 105-7 10-7 10-19 0-25-19-35-78-17-105ZM1085 1775l-24 4 23-100h1v96ZM1061 127l24 3v96h-1l-23-99ZM271 1197l-33 8-55 7c-8 1-12-7-11-22l98 5 1 2ZM1413 751l-8-11c7-30 34-36 57-46 15-8 33-6 47-2-17 5-35 9-53 17s-33 21-43 42ZM274 710l-102 5c-1-19 2-22 18-20l74 10 10 5ZM370 892c18-10 36-16 58-12 21 3 40 5 54 24l-6 11c-32-27-68-30-106-23ZM1512 1212c-21 5-42 5-62-6-18-10-40-16-45-42l8-8c23 36 56 54 99 56ZM1158 1760c-19 10-21 9-29-10l-24-61-2-14 55 85ZM1158 145l-56 87c1-7 1-11 3-15l24-62c8-19 10-20 29-10ZM476 990l6 11c-17 26-44 24-69 25-14 1-29-6-44-12 39 6 75 3 107-24ZM636 1061c-22-3-44 6-64-6-5-3-7-11-10-17 6-2 14-6 19-4l55 23v4ZM636 848l-50 22c-9 3-19 7-24-5-3-7 10-20 20-20l53-1 1 4ZM1310 941l39-40c4-4 9-6 14-7 4-1 10-1 12 2 2 1 1 8 0 12-5 11-12 17-25 20-13 2-25 8-40 13ZM1312 966c16 4 33 7 47 14 8 4 13 15 18 24 1 1-5 8-7 8-8-2-16-4-22-9-13-11-24-24-36-37ZM648 1080c-9 20-16 37-25 53-7 12-18 18-23 13-5-4-3-24 4-30l29-25 15-11ZM805 649l-11-46c-2-11-1-21 8-28 3-3 8-6 10-5 3 1 7 6 7 10l-4 31-10 38ZM648 824l-40-30c-11-9-11-20-10-32 1-2 8-5 10-4 5 4 11 8 14 14l26 52ZM805 1256c4 15 9 32 12 49 2 8 1 17-1 26-1 6-6 7-11 2-10-8-14-18-11-30l11-47ZM1222 721c7-26-5-57 18-78 12 8 17 21 10 34-8 15-18 30-28 44ZM1241 1262c-25-22-12-53-19-78 9 14 19 28 27 43 7 11 3 25-8 35ZM1239 740c15-6 30-14 45-19 6-2 15 0 22 2 4 2 7 7 10 11-4 3-7 9-11 9-13 2-26 1-39 1l-27-4ZM1240 1165c16-2 32-5 49-6 8 0 16 2 23 6 8 4 6 12-1 15-9 3-20 5-29 3-15-4-28-12-42-18ZM779 660l-53-16c-7-3-19-9-13-19 3-4 20-6 26-2 15 9 28 22 41 34l-1 3ZM781 1248c-14 11-26 24-41 34-6 4-16 3-23 1-7-1-9-7-3-12 5-5 11-11 18-13 15-5 32-8 47-12l2 2ZM1040 611c9-16 16-32 27-46 7-10 23-12 26-6 7 10-3 17-8 23-4 5-9 8-13 11l-30 20-2-2ZM1013 1299l-7 49c-3 11-19 23-25 18-11-8-3-19 1-27 8-14 19-27 29-41l2 1ZM1044 1291l48 41c2 3 2 9 2 13-5 1-10 3-15 2-11-3-17-10-22-21-4-11-11-21-17-32l4-3ZM1010 606l-26-37c-4-6-6-14-7-21-2-9 4-13 11-9s15 11 17 17c5 16 6 33 8 50h-3ZM789 1235c-21 5-41 10-62 13-4 1-11-4-13-8-3-9 5-10 11-10h35l28 1 1 4ZM1214 1178l3 60c0 3-3 8-6 10-7 6-14 3-13-6l8-49 3-14 5-1ZM1209 727l-11-61c0-4 4-8 6-12 4 3 11 6 11 9v52l-3 11-3 1ZM788 675l-65-1c-3 0-6-5-9-8 4-3 7-9 11-9 23-1 43 7 63 18ZM1227 1155l54-23c7-2 16-6 19 4 3 9-4 14-14 15l-60 7 1-3ZM1227 747l61 7c3 1 6 1 7 3 3 4 5 9 5 13 0 2-7 5-10 4-13-3-26-9-38-13l-26-11 1-3ZM648 1054l-49-23c-4-1-7-4-9-8l-1-14c4 0 11-2 13 1 17 13 32 27 48 41l-2 3ZM650 853l-41 38c-5 5-13 12-19 5-8-9 0-17 7-21l52-25 1 3ZM660 1082l-9 60c-1 3-7 6-11 9-3-5-9-11-8-14l24-57 4 2ZM810 659l18-60c1-4 11-8 15-7 9 2 6 10 3 15l-33 53-3-1ZM655 824l-23-54c-1-4 4-13 8-15 7-4 11 3 12 9l8 59-5 1ZM813 1246c10 15 21 30 30 46 4 6 12 16 0 21-10 6-15-5-18-13l-15-54h3ZM869 963c-19 20-48 16-73-10 23-26 52-33 76-10l-17-6c-14-6-26-3-36 7-7 6-6 11 0 17 12 12 26 12 40 6l10-4ZM1040 1276l56 19c4 2 6 9 9 13-5 2-12 6-15 5l-53-32 3-5ZM1038 625c16-11 31-22 48-32 4-2 16 0 18 4 5 8-3 12-10 15l-54 16-2-3ZM1009 625l-56-45c6-12 16-15 22-8l37 50-3 3ZM1012 1283l-34 46c-6 8-14 11-21 4-8-8 2-14 7-18l44-34 4 2ZM1091 1046c13-8 20 0 27 8 7 9 12 20 5 29-5 8-16 7-26 4-15-6-18-11-17-29 6 15 17 20 31 18 4-14-1-22-20-30ZM1298 935l26-49c3-6 7-15 16-9 8 6 6 14 0 20l-39 41-3-3ZM1081 845c-2-17 1-21 16-27 10-4 21-4 27 4 6 9 1 20-6 28-7 9-14 17-27 8 14-4 23-12 22-28-15-3-26 0-32 15ZM1302 967l40 43c5 6 4 14-3 17-3 2-11-2-13-5l-28-52 4-3ZM821 886l-27-3c-11 0-10 8-4 13l24 14c-6 7-16 5-24 0-10-6-20-15-16-26 2-6 12-11 20-13 12-4 26 6 27 15ZM815 996c-8 3-15 5-21 9-4 3-5 9-7 14 6 1 12 4 18 4 6-1 11-5 17-8 1 15-12 19-21 19s-22-4-26-11c-7-10 4-20 12-26 9-8 19-9 28-1ZM982 1112c3 8 5 16 9 23s11 8 13-1 1-19 1-27c11 2 16 14 11 30-7 20-18 22-32 7-12-12-12-25-2-32ZM1005 799c0-10 1-20-1-29-2-7-8-8-12-1-5 7-7 16-11 25l-6-14 1-4c2-11 16-28 23-25s14 11 17 19c6 13 0 24-11 29ZM1172 953c-15 24-36 27-48 11 8-1 18-2 28-6 7-2 7-9 0-11-9-4-19-5-29-7 4-2 10-7 16-8 16-2 26 6 33 21ZM882 1084c-13 7-14 16-14 26s6 11 11 6c7-6 13-14 19-21 6 7 2 16-4 24-8 9-24 16-31 10-4-2-6-9-7-14-4-15 8-31 26-31ZM899 880l-12-15c-8-12-21-17-34-13-2 1-5 6-5 9 1 12 3 24 17 30l23 8c-26 6-44-12-53-55 30-5 59 5 64 36ZM899 1025c-4 30-31 40-64 37 7-40 18-57 55-57l-24 9-6 3c-11 7-11 18-12 29 0 2 4 6 6 6 11 1 23 4 31-7l14-20ZM938 860c-23-19-23-44-2-75 30 19 39 44 25 67l1-11c1-6 3-15-1-19-6-8-14-15-23-18-6-2-14 22-11 31l11 25ZM898 810c-6-7-12-15-19-21-5-5-12-4-11 5l8 27c-10 0-17-5-19-20-1-8 1-19 6-25s23 0 30 10c7 8 11 17 5 24ZM961 1050c15 25 6 50-24 70-22-29-23-55 2-76-5 9-9 15-11 22-2 6-2 14 0 20s8 14 14 16c7 2 21-15 21-24l-2-28ZM1052 911c17-29 40-32 73-16-14 32-38 48-68 34h20c17 0 28-8 32-24 0-2-2-7-5-9-15-9-27-7-42 5l-10 10ZM1059 976c25-14 51 0 66 34-32 16-56 14-73-15l17 13c12 8 26 8 37 0 2-2 3-7 2-9-5-17-15-23-32-23h-17ZM1030 1032c13 5 21 15 23 28 2 11 1 22 0 32 0 3-6 7-8 6-28-5-44-26-41-56l6 24c3 10 20 21 30 20l6-6c4-15 4-28-10-38l-9-7 3-3ZM1027 870l12-10c10-10 13-25 6-37-1-2-5-3-7-3-19 2-28 12-31 31l-3 15c-4-26 4-42 26-53 22-10 22-10 24 14 1 25-5 38-27 43ZM677 837c-13-17-14-38-14-58 0-4 7-11 10-11 10 0 8 9 7 15l-5 33 2 21ZM674 1068l6 58c0 4-4 8-6 12-4-3-9-6-10-10-3-21 1-41 10-60ZM1030 645c14-14 35-17 55-21 4-1 8 5 12 8-4 3-8 8-13 9l-54 4ZM1029 1260l55 4c5 1 9 6 13 8-4 3-8 10-11 9-21-4-42-7-57-21ZM1211 759h13l41 16c5 3 14 7 8 15-6 10-13 3-18-1l-37-26-7-2v-2ZM1279 958l20 29 11 23c3 7 2 15-6 16-3 1-9-7-11-12l-14-56ZM1214 1146l38-28 6-4c5-2 11-8 14 0 2 4-1 13-5 14l-48 19c-3 1-6-1-5-1ZM816 683c3-26 16-43 31-59 2-3 10-1 15-1-3 6-3 14-8 17-15 9-26 22-34 38l-4 5ZM818 1225c9 17 21 31 38 41 3 3 3 11 5 16-5 0-13 1-16-2-12-16-26-33-27-55ZM1280 942l13-51c2-5 7-12 10-12 8 0 10 8 8 14l-28 47c-1 2-4 3-3 2Z" fill="#fff"/><path fill-rule="evenodd" clip-rule="evenodd" d="M1407 866c37-56 13-119-44-128 10-7 35 4 48 20 29 37 26 87-4 108ZM669 1052c-22-10-38-24-49-43-1-2 0-8 2-9s7-2 10 0 5 7 8 10l29 42ZM1409 1042c24 13 29 56 15 85-15 29-42 47-62 41 32-2 49-24 59-50s9-53-12-76ZM667 854l-31 48c-2 3-9 3-13 4-1-4-3-10-2-12 12-18 27-32 46-40ZM1011 642l-49-22c-5-3-7-8-11-13 5-1 11-6 14-4 20 9 36 22 46 39ZM823 526c-6-21 24-49 60-57 28-6 64 10 73 33a70 70 0 0 0-74-27c-26 6-52 18-59 51ZM955 1404c-9 23-47 39-74 32-35-9-60-33-58-56 8 32 34 45 61 50 26 5 53-2 71-26ZM1011 1263c-9 16-25 28-42 38-6 3-14 6-17-3-1-4 6-11 11-13l48-22ZM804 689c-19-2-37 1-53 11-2 1-5 3-7 2l-12-6c2-3 3-7 6-9 5-2 11-5 17-5 16 1 34-4 49 7ZM1137 1378c64 13 107-14 110-71 8 13-2 43-21 59-28 24-69 29-89 12ZM805 1219c-7 1-14 4-22 4l-44-5c-3 0-4-7-6-10 4-2 9-5 13-4l39 11c6 2 13 1 19 1l1 3ZM1199 1158c7 23-2 42-8 61-1 4-9 5-13 8-1-6-3-12-1-16 4-12 12-22 17-33l5-20ZM1199 747l-7-24c-4-10-11-19-15-29-2-4 0-11 1-16 5 3 12 4 13 8 6 19 15 38 8 61ZM1134 528c27-18 67-12 94 13 18 17 27 43 19 56 2-48-52-89-113-69ZM949 858c-19-22-21-30-8-46 17 7 20 25 8 46ZM950 1045c9 28 10 42-9 48-13-15-12-22 9-48ZM871 953c-24 14-32 14-49 1 9-15 22-18 49-1ZM1016 1034c7 6 15 12 20 19 4 5 3 12 4 19l-6 4c-6-4-13-7-16-13-4-8-4-18-7-27l5-2ZM894 892c-30-5-37-11-38-31 21-4 24-1 38 31ZM1011 869c3-11 4-22 9-32 2-4 11-5 17-8 1 8 4 16 1 21-6 8-15 14-22 21l-5-2ZM581 718c-17-20-9-60 10-81 19-22 59-39 77-22-32-8-55 5-73 26-17 21-27 46-14 77ZM668 1290c-16 16-55 2-76-20-19-21-29-61-13-80-11 28-1 53 16 74s41 34 73 26ZM519 885c-45 22-53 107 0 135-23-4-42-33-43-66 0-30 19-66 43-69ZM893 1014c-9 28-15 33-37 30 0-19 5-24 37-30ZM1054 918c8-6 16-14 25-18 5-2 13 1 19 2 1 0 2 5 1 6-5 5-10 11-15 13-9 2-19 1-28 1l-2-4ZM1100 1002c-13 10-28 4-45-16 30-6 41-4 45 16ZM1485 868c9 2 21 3 22 6 5 15 14 30 1 46l-23-52ZM1093 1481l46-32c0 9 1 21-2 23-13 6-26 19-44 9ZM1418 1221c6 8 14 15 13 19-5 13-9 29-28 36l15-55ZM1508 986c8 11 9 35-1 45-4 4-13 3-21 5l22-50ZM1418 684l-15-55 11 5c6 10 13 20 17 30 1 4-7 12-13 20ZM1094 424c11-4 41 1 45 10 3 5 0 13-1 21l-44-31ZM1360 578l-49-23c7-4 14-12 19-11 14 3 29 21 30 34ZM1312 1350l49-24c-2 6-3 11-6 15-2 4-6 6-9 9-18 12-18 12-34 0ZM445 1106c-18-12-14-30-14-46l18-6-4 52ZM1027 413l-50 12c-2-19 0-21 20-21 10 0 22-3 30 9ZM977 1479l53 14-21 8h-12c-20 0-20 0-20-22ZM501 1209l-15 6c-8-14-23-25-19-43l34 37ZM449 851l-18-6c-2-28 0-35 14-46l4 52ZM466 731c-3-16 12-27 20-41l16 6-36 35ZM724 466c6-11 32-26 41-22 5 2 8 10 13 17l-54 5ZM725 1439l53 5c-5 7-9 16-14 17-11 3-35-12-39-22ZM666 500l-31 43-11-17c13-9 19-29 42-26ZM666 1405c-23 3-29-17-42-25l11-18 31 43ZM943 1224v-43l3-1 14 31c3 9-3 14-17 13ZM944 724v-43c14-2 19 3 14 16l-12 28-2-1ZM742 969l-22 17c-6 3-13 4-19 4-3 0-6-5-7-9-1 0 4-5 6-5l42-7ZM781 822l-34-4c-7-1-12-6-10-13 1-3 8-7 10-6l34 20v3ZM907 732c-8-8-17-15-23-24-7-10-2-17 11-18l14 40-2 2ZM742 936l-42-7c-2 0-7-5-6-5 1-4 4-9 7-10 6 0 13 1 18 4l23 18ZM909 1176l-15 40c-4-2-10-3-11-7-2-3-1-9 1-12 6-10 13-18 20-26l5 5ZM1186 890l44-7c3 15-1 20-14 18l-30-8v-3ZM1185 1012l31-8c13-2 17 3 14 18l-45-7v-3ZM782 1086l-35 19c-2 2-6-1-10-2 2-5 4-13 7-14 12-3 24-4 37-6l1 3ZM1095 763l24-29c2-2 8-3 9-1 2 2 5 8 4 10-2 4-7 9-11 11l-24 11-2-2ZM802 793l-23-29c-2-3-3-7-2-9s6-4 9-3c3 2 8 5 10 8l9 33h-3ZM1214 835l-40 24-2-1c7-10 14-21 23-29 5-6 11-4 19 6ZM1213 1070c-8 12-15 13-23 2-6-8-12-17-16-27l39 25ZM1097 1140l28 13c8 4 11 10 5 17-2 2-9 3-10 1l-25-29 2-2ZM805 1112l-9 33c-2 3-8 6-13 8-2 1-6-2-7-4s0-5 2-7l24-30h3ZM1061 747l1-36c0-4 4-7 8-10 1-1 7 1 7 2 1 4 0 8-1 11l-10 32-5 1ZM1065 1158c5 12 10 25 13 38 1 2-3 5-4 8-4-3-12-6-12-9-2-12-1-25-1-37h4Z" fill="#fff"/><path fill-rule="evenodd" clip-rule="evenodd" d="M881 484c16-6 40-2 58 13l-22-5-13 3-23-11ZM599 645a101288 101288 0 0 1 1 24l-15 30c-4-14 0-27 7-40l7-14ZM881 1421l23-11v2l35-4c-15 14-42 20-58 13ZM1416 1116c-10 17-20 34-39 42h-2c1-13 21-16 17-31l24-11ZM1416 789l-24-11c6-16-17-17-17-31 21 6 30 25 41 42ZM599 1260c-8-16-18-31-17-50l1-8 17 33 2-1-3 26ZM1207 1366c2-10-2-22 14-27 6-2 11-13 17-19-3 20-17 33-31 45v1ZM1207 539l27 32c3 3 4 9 6 13-14-2-13-21-28-22-2 0-3-15-5-23ZM1207 539l-23 5-34-11a77 77 0 0 1 57 6ZM1416 789c3 18 6 36-3 54h-3v-18c0-4-2-8-5-15l11-21ZM1416 1116l-12-23h3l3-30c12 17 8 35 6 53ZM599 645c16-11 29-25 51-22l-15 8-6 3c-6 15-19 9-30 11ZM1207 1365a87 87 0 0 1-59 7l36-11 23 5v-1ZM555 231l11-8 16 51-2 1-25-44ZM582 1631l-16 51-11-8 25-44 2 1ZM599 1260c11 2 23-4 31 11 3 5 13 7 21 11-15 4-21 1-52-22ZM1092 1773v-25l4-29c4 18 7 33 8 47 1 3-5 6-9 9l-3-2ZM231 1215l-47 17-6-13 52-6 1 2ZM1092 132c11-2 14 1 12 12l-9 39-3-51ZM230 692l-52-6 6-13 47 17-1 2ZM192 1254c-5-8-7-13 4-16 13-3 24-9 37-11l-41 27ZM491 957c6 6 17 9 13 23-2 5 5 14 6 22a58 58 0 0 1-19-45ZM490 950c0-20 7-35 20-47-6 15-2 35-20 47ZM881 1421c-18-2-32-13-43-27 16 7 35 7 43 27ZM232 681l-42-17c-2 0-1-7-1-15l44 29-1 3ZM881 484c-7 20-28 19-43 27 11-15 25-24 43-27ZM1130 134l-21 48h-2l7-42c0-2 8-3 16-6ZM535 242c9-7 13-6 17 3 5 11 12 21 18 31l-2 2-33-36ZM1129 1767c-12 4-16 0-17-11 0-11-3-22-3-34l20 45ZM1591 404l9 11-37 30-2-1 30-40ZM533 1665l34-38 3 2-22 38c-1 1-8-1-15-2ZM1591 1501l-30-40 2-2 37 31-9 11ZM1797 971l-50-12v-1h50v13ZM1615 1473l-9 10-35-29 2-2 42 21ZM1747 946l50-12 1 13h-51v-1ZM1605 422l11 10-43 21-2-2 34-29ZM1372 826c11 3 20-14 32-3-10 13-21 8-32 3ZM1371 1077c12-3 23-7 33 3-7 8-17 7-33-3ZM767 1077c-9 1-17 3-26 3l-3-4c1-3 4-7 6-7 8 0 16 2 23 4v4ZM719 548l-16-7c-4-2-6-7-9-11l4-3 24 16-3 5ZM517 1117c-6 4-11 8-18 11-2 1-6-1-9-2 2-3 3-8 6-8l20-4 1 3ZM731 508c13 7 14 22 4 29l-4-29ZM696 1380c1-15 12-23 27-21l-27 21ZM598 681c17-6 21 15 34 15-12-1-26 1-34-15ZM1217 1334c-16-1-12-21-24-24 16 1 25 10 24 24ZM1052 734c-7-8-17-16-4-29 10 9 4 20 4 29ZM634 1208l-28 17c-2 1-5-1-7-2 7-12 7-12 35-15ZM1193 596c11-5 9-23 24-25 1 14-5 20-24 25ZM1354 792c9-13 15-25 33-18l-33 18ZM767 832c-7 2-15 4-22 4-3 0-5-5-7-8l8-2 21 1v5ZM1160 578c0-11-5-25 9-35 9 15-9 23-9 35ZM1169 1362c-14-10-9-23-9-35 0 12 19 19 9 35ZM1049 1201c-11-13-11-16 4-32 0 11 4 22-4 32Z" fill="#fff"/><path fill-rule="evenodd" clip-rule="evenodd" d="m1357 1115 33 17c-18 5-19 4-33-17ZM1192 997l24-11c2 0 5 4 7 6l-6 4-22 5-3-4ZM873 1366c-6 9 0 23-14 30-4-15 4-23 14-30ZM873 539c-16-13-17-15-13-30 14 6 7 21 13 30ZM1079 1439c-10 1-23-13-22-19l6-3 16 22ZM1471 932l-28 13-3-3c2-2 3-6 6-7 7-3 12-13 25-3ZM731 1397l3-28c11 5 11 21-3 28ZM916 1374l3 24c1 2-3 5-5 7-2-3-5-5-5-8l3-23h4ZM1338 614l-12 29c-3-4-6-6-5-8 3-8 3-19 13-23l4 2ZM1079 466l-16 22s-6-2-6-4c0-6 12-19 22-18ZM1364 645c-9 15-22 17-30 7l30-7ZM516 791l-22-4c-2-1-3-5-4-8 3-1 6-4 8-3l19 11-1 4ZM1194 904l25 5 4 5-6 5c-9-3-16-7-24-11l1-4ZM912 531l-3-23c0-3 3-5 5-8 2 2 5 4 5 7l-3 24h-4ZM1470 973c-12 7-27 0-29-14l29 14ZM1111 1132l25 8c2 1 1 6 2 11l-28-14 1-5ZM734 984c-3 19-7 23-24 19l24-19ZM1043 886l-16-1v-3h23l-2 22h-4l-1-18ZM1048 480l-2-19c1-3 5-5 8-8 1 4 5 8 4 11-1 6-5 11-8 16h-2ZM958 717l8-19 6-5c1 2 5 5 4 7l-13 20-5-3ZM1042 485c-13-5-17-20-9-34l9 34ZM635 1266c-4-16 15-14 17-25 2 15-4 23-17 25ZM811 782l-9-27c-1-1 1-4 2-5s5 0 5 1c2 5 5 10 5 15l-3 16ZM1366 1260l-34-7 10-7c8 4 19-1 24 14ZM962 1185c5 6 10 11 14 18 1 2-3 6-4 9l-6-6-8-18 4-3ZM653 663c-4-9-21-9-19-24 13 1 18 6 19 24ZM545 934l-38-5c14-11 22-9 38 5ZM1042 1420l-9 34c-8-14-3-29 9-34ZM712 899c15-1 19 3 22 21l-24-17 2-4ZM1326 1264l12 26c-13 0-14-10-16-18-1-2 0-5 1-8h3ZM1109 768l26-13c5 10-3 19-14 17l-12-4ZM1049 1422c4 8 7 12 8 17 1 3 0 8-1 11 0 1-5 2-6 1-2-3-4-6-4-10l3-19ZM511 976l33-5c-13 13-21 15-33 9v-4ZM812 1124l2 24c-1 3-7 5-10 7v-10l6-21h2ZM1047 1001l5 24-26-2v-3l17-1 1-17 3-1ZM893 730c-13 0-20-3-23-11l1-8c3 1 6 1 7 3l15 16ZM487 799l31-2c-8 10-20 12-30 7l-1-5ZM725 537l-14-14c-1-3 1-7 1-10 3 1 8 2 9 4l7 18-3 2ZM893 1176l-15 15c-1 2-4 2-7 2 0-2-2-6 0-7l20-14 2 4ZM499 1139l22-18c6 10-5 23-17 24l-5-6ZM504 760c12 1 22 13 18 23l-21-20 3-3ZM728 1369l-8 21c-1 2-6 2-8 2-1-1-2-6-1-8l13-17 4 2ZM488 1098l28 3v6l-29-1 1-8ZM1471 681l11-23c9 21 7 25-11 23ZM1190 820l-16 21-4-1 8-21c2-2 7-2 10-2l2 3ZM1174 1063l17 23-10 2c-5-7-8-15-12-22l5-3ZM1473 1224c15-2 16 0 11 20-11-2-9-12-11-20ZM1551 1062c-9 18-11 19-21 9 4-7 10-12 21-9ZM386 854l8 17c-3 1-7 4-9 3-7-4-7-11-5-18l6-2ZM1333 1261c5 1 8 1 10 3l12 11c-2 1-4 5-5 4l-13-10c-2-1-2-4-4-8ZM1333 641l12-14c2-2 6 0 9 0 0 3 0 7-2 9l-16 9-3-4ZM1182 1487c13 11 1 15-5 23-9-10-2-16 5-23ZM1529 834c11-10 13-9 21 7-10 7-15 0-21-7ZM1177 395c6 7 18 11 6 23-7-6-15-11-6-23ZM386 1051c-9-9-7-16 0-20 1-1 5 2 8 3l-8 17ZM1448 950l20-2c2 0 5 3 5 4 0 2-3 5-5 5l-20-2v-5ZM579 502c11 7 5 14 1 22-11-5-11-12-1-22ZM575 1402l-2-19h8c4 7 8 14-6 19ZM1060 938l17 14-18 15-2-3 10-11-10-12 3-3ZM455 649c7-7 13-16 22-4-8 10-11 11-22 4ZM948 379c-8-11-5-16 2-18 3-2 7 0 10 1l-12 17ZM456 1256c8-9 14-2 21 1-7 12-9 12-21-1ZM963 1542l-8 5-12-11 6-6 14 12ZM865 323l-20 5 8-19 12 14ZM1320 496c3-3 5-7 8-8 5 0 10 2 14 3v6l-20 3-2-4ZM475 1357l9 12-18 4 4-17 5 1ZM1337 1387c-14 14-17 14-26 0h26ZM489 1082c17-1 23 1 27 11l-28-7 1-4ZM953 399l-5-14 14-6c1-1 3 1 5 2l-14 18ZM1027 1421l-15 28c-3-16 2-25 15-28ZM529 770l-15-24 3-2c15 9 19 18 12 26ZM1014 459l12 24c-11-1-16-9-16-23l4-1ZM1313 633c-8-8-5-22 8-31l-8 31ZM533 1138c1 10-7 17-14 23l-5-2 15-23 4 2ZM850 1578l14 4-11 14-7-16 4-2ZM330 943v12l-1 6-17-6v-4l18-8ZM1314 1271l7 32c-13-9-16-22-7-32ZM482 539l-9 12-8-18 17 1v5ZM1461 991c-16 1-26-6-22-16l22 16ZM953 1505l14 19-19-2 5-17ZM932 1041l-21 8-5-23 3-3c3 14 7 23 23 12v6ZM906 879l5-23 21 8 1 5c-14-8-22-4-23 13l-4-3ZM1334 518h-23c9-14 12-14 23 0ZM1323 1405l19 3v5c-4 2-9 4-14 4-3 0-5-5-8-8l3-4ZM1461 914l-21 15c-5-8 3-15 18-18l3 3ZM488 819l26-7c0 11-6 13-25 11l-1-4ZM1369 1241l-29-3 7-7 23 5-1 5ZM986 1063l-19-16 2-3 14 8 10-11 2 1-9 21ZM1118 1412l-19-12c9-8 18-4 19 12ZM1089 1433l-20-21c13 0 21 8 20 21ZM1569 1161l11 15-20 3 9-18ZM1286 1290l2 26c-12-8-13-18-2-26ZM1069 493l20-21c1 13-7 21-20 21ZM585 1378l14-11 2 22-16-11ZM585 527l15-12v22l-15-10ZM1568 744l-8-18 20 3-12 15ZM1097 506l22-14c0 15-9 21-22 14ZM1288 589l-2 26c-11-7-10-17 2-26ZM1372 663c-9 11-24 12-30 4l30-4ZM494 662l-22 8-2-4 11-13 13 9ZM1292 1500v18l-17-9 17-9ZM788 1501c2 16-8 12-16 13 0-11 2-12 16-13ZM491 855l21-10 2 5c-3 10-13 8-20 10l-3-5ZM790 1482l-3 13-16-6 17-11 2 4ZM976 1435c1-9 3-17 13-19l4 2-12 19-5-2ZM1169 1469l8 11-15 12-4-3 11-20ZM758 505l-2 28-6-1 2-27h6ZM788 404c-9 0-16-1-18-12 9-1 20-4 18 12ZM787 410l4 18-20-12 16-6ZM472 1235l22 7-13 10-12-12 3-5ZM1162 413l15 12-7 10-13-17 5-5ZM685 544l25 10c-7 8-16 5-25-10ZM1293 405l-17-8 17-10v18ZM980 468l16 20h-12l-9-17 5-3ZM752 1400l-3-27 4-1c8 8 4 18 4 28h-5ZM986 842l9 21c-12-12-12-12-25-2l-2-2 18-17ZM1468 1053l19-12c2 17-1 19-19 12ZM1467 851c19-6 21-4 21 13l-21-13ZM491 1042l27 12c-15 6-19 4-27-12ZM1509 841l14-4 8 16-4 3-18-15ZM554 1193l9-23c3 7 6 12 5 14-2 4-7 8-11 12l-3-3ZM1320 1460l15 8-1 4-21 3 7-15ZM811 505l-2 17c-1 2-6 2-12 5l8-23 6 1ZM1361 724c-1-13 3-14 20-4l-20 4ZM1378 703h-23v-5h23v5ZM1359 1189l4-7 17 2 1 5-19 4-3-4ZM461 598l-17-5-1-3 18-8v16ZM684 1358c11-12 19-15 26-7l-24 10-2-3ZM1355 1203c8-6 15-4 23 0v4h-23v-4ZM1106 482c-4 15-11 21-22 16l22-16ZM884 997l-23-6 12-21 3 2-6 16 14 7v2ZM870 917l6 16-2 1-13-19 23-8 1 3-15 7ZM1320 446l-6-14h20l1 3-15 11ZM1453 1218c13 0 14 7 12 13 0 3-4 5-6 7l-6-20ZM1523 1068l-13-4 16-15 4 3-7 16ZM1105 1423l-20-15c10-6 18 0 20 15ZM805 1400l-8-21c6 2 11 3 12 5l1 16h-5ZM1468 683l-15 6 7-22 8 16ZM558 709c3 4 8 7 10 12 1 2-2 7-4 14l-11-23 5-3ZM807 355l-10-13 1-3 22 5-13 11ZM1445 883l-16 14-4-4 16-16 4 6ZM1414 1197c19 7 19 9 9 23l-9-23ZM351 899l-10 13-10-16 3-3 17 6ZM463 1323l-20-8 1-3 16-5 3 16ZM666 1332c9-14 15-15 23-5l-23 5ZM540 1183l9-21c8 6 7 13-5 22l-4-1ZM539 1147l7 7-15 18-3-2 11-23ZM528 735c16 8 19 14 11 22l-11-22ZM549 744l-9-22c15 7 18 14 9 22ZM331 1009l10-16 9 13-15 6-4-3ZM1442 1026l-8-4-8-11 3-3 12 9c2 2 2 5 3 7l-2 2ZM1072 879v-16l-16-2 1-4 20 2-2 20h-3ZM1056 1044l16-2v-15l3-1c1 7 4 16 1 19-4 4-12 2-19 3l-1-4ZM770 1402l-6-24c12 2 14 12 6 24ZM781 1380c12 3 15 11 8 26l-8-26ZM1423 684c10 16 9 17-8 24l8-24ZM403 1052v-16h14l-11 18-3-2ZM528 1222l-14 7-10-14 23 3 1 4ZM965 1409l13 3-14 17-4-1 5-19ZM406 851l12 19h-15l-1-17 4-2ZM506 686l9-9 12 6 1 3-21 4-1-4ZM995 1444c-1-18 3-24 15-25l-15 25ZM1153 1428c8 13 7 21-8 25l8-25ZM788 500c8 13 6 23-6 24l6-24ZM774 506c2 8 3 16-5 22l-4-1 5-23 4 2ZM966 496l-6-19 4-1 13 16-11 4ZM995 461l15 24c-11 1-16-5-15-24ZM818 1560l-19 7-2-3 10-14 11 10ZM1143 452c18 4 17 12 10 24l-10-24ZM689 578c-9 10-16 8-26-5l26 5ZM1285 552c8-12 14-16 25-3l-25 3ZM893 1058l3 15 16-4 1 3-20 8-4-21 4-1ZM673 604l-17-11 2-4 20 4-5 11ZM1270 607l-11-4 7-18h4v22ZM864 905l-11 7 5 11-4 2-10-17 19-6 1 3ZM1266 1321l-7-19 11-4 1 22-5 1ZM444 1030l16-2-13 18-3-1v-15ZM1131 1399l-17-10c8-9 13-8 17 10ZM517 1403l-3-18 15 4-8 15-4-1ZM803 468l-20-12c15-8 15-8 20 12Z" fill="#fff"/><path fill-rule="evenodd" clip-rule="evenodd" d="m975 1064 11 6 9-9 3 1-9 18-16-14 2-2ZM1195 408l-4-22c11 5 17 10 4 22ZM803 1437c-5 20-5 20-21 13l21-13ZM672 557l25 8c-5 10-13 7-25-8ZM1374 685l-19 4c-1 1-5-2-5-4l4-5 20 2v3ZM1301 1283l3 25c-13-11-14-20-3-25ZM447 859l13 19-16-4-1-14 4-1ZM1113 515l21-10c-6 18-11 20-21 10ZM1191 1519l4-21c13 9 7 16 0 22l-4-1ZM843 985l-8 14 15 8-2 3-18-8 9-19 4 2ZM1584 1117l-13 14-4-5-4-13 16-1 5 5ZM892 825l21 8-1 3-15-5-5 16-3-1 3-21ZM1311 1356c-11 13-18 9-26-3l26 3ZM627 569l-12-14 9-10 3 2v22ZM656 1312l17-10 6 10-21 4-2-4Z" fill="#fff"/><path fill-rule="evenodd" clip-rule="evenodd" d="m864 1003-19-5 9-18 3 1-3 13 10 6v3ZM938 361c-8-8-4-14 1-18 2-2 5 0 8 0l-9 18ZM995 844l-9-9-11 6-2-2 15-14 10 17-3 2ZM522 501l6 15-14 4 3-19h5ZM624 1359l-9-9 12-14 1 22-4 1ZM675 1347c10-14 17-16 23-7l-23 7ZM839 922l-9-18 18-9 2 3-14 7 7 15-4 2ZM1580 792h-17l3-13 5-4 13 13-4 4ZM938 1544l7 9 1 10c-3-1-8-1-9-3-2-4-2-9-3-14l4-2ZM1301 623c-10-7-10-14 3-27l-3 27ZM912 1568l3 16-3 3-14-12 14-7ZM497 1033c18-4 19-4 17 10l-17-10ZM1509 1047c-2 9-4 17-18 12l15-15 3 3ZM490 682c7-18 8-18 18-8l-18 8ZM1494 681l9-21c6 18 3 22-9 21ZM1454 900l-18 17c-5-13 0-19 15-20l3 3ZM514 861c2 14-1 16-20 13l20-13ZM920 1057l-17 7-5-17 2-2c4 8 9 15 19 8l1 4ZM1450 1009c-8-3-18-4-18-21l20 19-2 2ZM437 1032l-10 19-3-1v-17l13-1ZM1109 955l-15-13 3-3c4 4 13 9 12 12 0 6-7 10-12 16l-5-6 17-6ZM1374 1223l-18 2c-2 0-4-4-6-6l7-3 16 4 1 3ZM427 854l10 18-13 1v-18l3-1ZM1491 846c15-5 16 4 18 12l-3 3-15-15ZM1344 475l-22 5c6-13 13-13 21-9l1 4ZM1492 1223c17 0 15 9 14 17l-3 2-11-19ZM777 370l16 6 5 5c-4 1-7 4-10 3-5-2-9-6-14-9l3-5ZM794 1529l-17 6-3-5 13-8c1-1 5 2 7 3v4ZM898 858l4-17 18 7c-8 2-18-2-17 14l-5-4ZM912 337l-14-6 13-13 4 2-3 17ZM1325 1425l19 5c-9 9-15 8-20-1l1-4ZM1564 1079c-4 8-8 14-20 6l18-10 2 4ZM1526 693l12-13 4 1-3 16-13-4ZM794 1462l-1 11-17-3-1-5 19-3ZM955 1464l14 19c-17-1-17-1-14-19ZM967 1505l-16-7 3-6 15 6-2 7ZM490 1223l18 8c-11 15-15 2-20-4l2-4ZM380 880h-13l-7-13 4-3 16 16Z" fill="#fff"/><path fill-rule="evenodd" clip-rule="evenodd" d="m1081 941 13 11-13 12-3-3 7-9-7-8 3-3ZM1437 695l1-21c12 11 12 16-1 21ZM1299 1372l21-3 2 4-14 8-9-9ZM1540 1203l2 25-15-14 13-11ZM1438 1233l-1-22c13 3 14 6 1 22ZM491 837l20-9c1 11-4 14-20 9ZM1003 1078l-12 19-15-14 2-2 12 8 10-13 3 2ZM1154 434l13 7-4 13-13-16 4-4ZM793 431l1 13-19-4v-4l18-5ZM466 631l-19 2c6-11 12-13 19-6v4ZM1421 1021l15 18c-16 0-20-5-15-18ZM976 821l15-13 12 18-3 2-10-12-12 8-2-3ZM363 1043c-2-15 3-21 15-17l-15 17ZM954 437v-14l14-3-11 18-3-1ZM1229 392v-15l3-2 13 15-16 2ZM493 1063c7 3 17-2 21 15l-23-11 2-4ZM466 1278c-7 7-13 5-19-5h19v5ZM1543 820c13-8 17-2 21 6l-2 3-19-9ZM1229 1528v-14h15l-12 16-3-2ZM969 406l-15 8-3-8 16-6 2 6ZM1162 1451l6 12-15 8-3-4 12-16ZM1435 867l-15 18c-1-6-3-11-2-12 4-4 10-6 15-9l2 3ZM966 1012c-32 0-59-28-59-60 0-33 28-59 61-59 31 1 57 28 57 59 0 33-27 60-59 60Z" fill="#fff"/></svg>