<?xml version="1.0" encoding="utf-8"?>
<svg viewBox="68.6094 164.3125 261.1118 63.3281" width="261.1118" height="63.3281" xmlns="http://www.w3.org/2000/svg">
    <g xmlns="http://www.w3.org/2000/svg" fill="#FFFFFE" fill-rule="evenodd" transform="matrix(1, 0, 0, 1, 69.54310607910156, 173.5536804199219)">
        <path d="M24.737,10.905 L24.737,10.53 C28.983,9.14 32.818,9.384 36.281,10.038 L34.562,5.166 L36.175,6.028 L38.538,11.943 C35.383,10.753 28.751,10.753 24.737,10.905 L24.737,10.905 Z M23.116,10.905 C19.273,10.753 12.642,10.753 9.317,11.943 L11.68,6.028 L13.291,5.166 L11.58,10.038 C15.045,9.384 18.877,9.14 23.126,10.53 L23.116,10.905 Z M37.334,5.27 C37.296,5.197 35.007,4.064 35.007,4.064 C32.098,3.454 27.303,3.722 23.96,4.951 L23.948,4.951 C20.603,3.722 15.813,3.454 12.901,4.064 C12.901,4.064 10.612,5.197 10.577,5.27 L7.031,13.096 C6.915,13.314 7.097,13.499 7.298,13.459 C12.69,12.435 18.881,12.12 23.951,12.12 L23.956,12.12 C29.026,12.12 35.218,12.435 40.608,13.459 C40.811,13.499 40.991,13.314 40.877,13.096 L37.334,5.27 L37.334,5.27 Z"/>
        <path d="M46.339,8.823 C46.339,11.376 46.184,13.785 45.907,16.064 C31.528,13.027 16.401,13.027 2.002,16.071 C1.724,13.788 1.569,11.377 1.569,8.823 L1.567,4.936 C1.567,4.408 1.93,3.968 2.421,3.845 L2.447,3.837 C9.383,2.353 16.577,1.566 23.953,1.566 C31.321,1.566 38.506,2.352 45.43,3.831 L45.447,3.837 C45.959,3.942 46.342,4.395 46.342,4.936 L46.339,8.823 Z M24.932,20.359 L24.932,15.959 C26.315,15.971 27.696,16.007 29.074,16.074 L29.074,23.119 L24.932,20.359 Z M41.516,31.399 C41.512,31.404 41.509,31.414 41.505,31.42 C40.26,33.998 38.852,36.284 37.369,38.288 C37.366,38.292 37.366,38.293 37.365,38.293 C36.015,40.119 34.615,41.723 33.221,43.107 L33.221,35.527 L29.074,32.768 L29.074,46.71 C27.533,47.873 26.114,48.771 24.932,49.422 L24.932,30.008 L29.074,32.768 L29.074,23.12 L33.221,25.876 L33.221,16.362 C34.606,16.485 35.989,16.628 37.365,16.805 L37.365,28.635 L41.505,31.392 L41.505,17.431 C42.831,17.657 44.15,17.899 45.463,18.176 L45.605,18.207 C44.784,23.284 43.325,27.653 41.516,31.399 L41.516,31.399 Z M22.976,49.422 C17.117,46.188 5.346,37.016 2.305,18.212 L2.447,18.182 C9.148,16.767 16.05,16.024 22.976,15.959 L22.976,49.422 Z M45.935,2.345 L45.912,2.335 L45.76,2.301 C38.622,0.773 31.286,0 23.953,0 C16.618,0 9.272,0.776 2.12,2.305 L2.05,2.32 L1.983,2.341 C0.84,2.623 -3.55271368e-15,3.696 -3.55271368e-15,4.938 L0.002,8.823 C0.002,36.847 17.343,48.217 22.658,51.033 C23.083,51.26 23.523,51.375 23.961,51.375 C24.401,51.375 24.839,51.26 25.261,51.029 C30.561,48.222 47.906,36.847 47.906,8.823 L47.906,4.938 C47.906,3.726 47.09,2.663 45.935,2.345 L45.935,2.345 Z"/>
        <polyline points="37.365 28.634 33.221 25.877 33.221 35.526 37.365 38.284 37.365 28.634"/>
        <path d="M 7.506 27.607 L 10.166 27.607 C 10.21 28.463 10.362 29.244 10.586 29.949 C 9.74 30.139 9.039 30.376 8.477 30.604 C 7.929 29.72 7.584 28.701 7.506 27.607 Z M 8.477 23.655 C 9.039 23.882 9.74 24.118 10.588 24.309 C 10.362 25.013 10.21 25.796 10.166 26.651 L 7.506 26.651 C 7.584 25.557 7.93 24.539 8.477 23.655 Z M 12.738 20.645 C 12.152 21.278 11.453 22.199 10.924 23.404 C 10.193 23.246 9.565 23.048 9.053 22.854 C 9.988 21.75 11.272 20.955 12.738 20.645 Z M 13.632 23.72 C 13.016 23.702 12.443 23.652 11.91 23.576 C 12.438 22.469 13.116 21.632 13.632 21.101 L 13.632 23.72 Z M 13.632 26.651 L 11.125 26.651 C 11.17 25.86 11.323 25.139 11.544 24.489 C 12.179 24.59 12.877 24.656 13.632 24.678 L 13.632 26.651 Z M 13.632 29.58 C 12.877 29.602 12.179 29.666 11.544 29.767 C 11.323 29.12 11.17 28.398 11.125 27.607 L 13.632 27.607 L 13.632 29.58 Z M 13.632 33.157 C 13.116 32.623 12.438 31.788 11.91 30.682 C 12.443 30.608 13.016 30.558 13.632 30.538 L 13.632 33.157 Z M 9.052 31.402 C 9.565 31.208 10.193 31.013 10.924 30.855 C 11.453 32.058 12.152 32.982 12.738 33.613 C 11.27 33.303 9.987 32.508 9.052 31.402 Z M 14.588 30.538 C 15.207 30.558 15.782 30.608 16.314 30.683 C 15.787 31.796 15.104 32.634 14.588 33.162 L 14.588 30.538 Z M 14.588 27.607 L 17.102 27.607 C 17.054 28.398 16.903 29.12 16.682 29.77 C 16.046 29.666 15.344 29.602 14.588 29.58 L 14.588 27.607 Z M 14.588 24.678 C 15.344 24.656 16.047 24.59 16.686 24.489 C 16.903 25.138 17.054 25.859 17.102 26.651 L 14.588 26.651 L 14.588 24.678 Z M 14.588 21.09 C 15.105 21.621 15.79 22.459 16.32 23.575 C 15.786 23.652 15.208 23.702 14.588 23.72 L 14.588 21.09 Z M 19.17 22.855 C 18.657 23.05 18.031 23.246 17.301 23.404 C 16.773 22.2 16.076 21.28 15.492 20.647 C 16.953 20.958 18.237 21.753 19.17 22.855 Z M 19.744 23.655 C 20.292 24.54 20.636 25.557 20.718 26.651 L 18.06 26.651 C 18.016 25.796 17.862 25.013 17.638 24.309 C 18.484 24.118 19.183 23.882 19.744 23.655 Z M 19.744 30.604 C 19.183 30.376 18.481 30.139 17.638 29.95 C 17.862 29.244 18.016 28.466 18.06 27.607 L 20.718 27.607 C 20.636 28.701 20.292 29.72 19.744 30.604 Z M 15.492 33.611 C 16.076 32.979 16.773 32.057 17.301 30.856 C 18.031 31.013 18.657 31.208 19.17 31.402 C 18.237 32.507 16.953 33.3 15.492 33.611 Z M 14.111 34.715 C 18.293 34.715 21.697 31.312 21.697 27.13 C 21.697 22.946 18.293 19.544 14.111 19.544 C 9.929 19.544 6.527 22.946 6.527 27.13 C 6.527 31.312 9.929 34.715 14.111 34.715 Z M 60.496 10.987 C 60.507 7.38 60.182 6.988 58.266 6.819 L 57.454 6.753 C 57.257 6.622 57.326 6.039 57.521 5.941 C 59.408 6.01 60.51 6.048 61.874 6.052 C 63.174 6.056 64.28 6.024 65.578 5.964 C 65.774 6.063 65.838 6.646 65.641 6.776 L 65.155 6.839 C 63.239 7.095 63.17 7.548 63.16 10.994 L 63.126 23.049 C 63.118 25.615 62.982 27.857 62.361 29.349 C 61.28 31.948 58.967 34.021 55.947 34.012 C 55.556 34.011 54.55 33.976 54.552 33.325 C 54.554 32.773 55.042 31.832 55.723 31.834 C 56.114 31.835 56.505 31.901 56.927 32.032 C 57.382 32.165 57.836 32.262 58.29 32.263 C 58.972 32.265 59.365 31.878 59.592 31.424 C 60.344 29.898 60.456 25.022 60.461 23.27 L 60.496 10.987 M 82.069 19.275 C 82.082 14.752 80.093 9.869 74.858 9.854 C 72.006 9.845 68.301 11.781 68.284 17.784 C 68.272 21.839 70.231 27.111 75.631 27.126 C 78.921 27.136 82.053 24.677 82.069 19.275 M 65.537 18.654 C 65.553 13.171 69.679 8.987 75.325 9.003 C 81.658 9.022 84.826 13.61 84.812 18.434 C 84.796 23.971 80.564 27.989 75.271 27.974 C 69.186 27.957 65.523 23.586 65.537 18.654 M 91.038 18.727 C 89.724 18.723 89.667 18.778 89.664 19.6 L 89.653 23.464 C 89.645 26.343 89.782 26.726 91.317 26.895 L 92.111 26.982 C 92.275 27.09 92.22 27.584 92.054 27.664 C 90.573 27.605 89.641 27.576 88.572 27.573 C 87.394 27.57 86.464 27.623 85.393 27.645 C 85.229 27.563 85.176 27.125 85.341 26.963 L 85.806 26.879 C 87.341 26.612 87.398 26.337 87.406 23.458 L 87.435 13.59 C 87.443 10.711 87.253 10.244 85.826 10.13 L 85.113 10.073 C 84.95 9.963 85.007 9.468 85.171 9.389 C 86.516 9.419 87.446 9.475 88.623 9.479 C 89.693 9.482 90.625 9.459 91.803 9.408 C 91.97 9.488 92.023 9.983 91.855 10.093 L 91.337 10.146 C 89.748 10.307 89.69 10.717 89.681 13.596 L 89.672 16.747 C 89.67 17.598 89.727 17.626 91.041 17.63 L 98.88 17.653 C 100.197 17.656 100.252 17.628 100.254 16.778 L 100.263 13.627 C 100.272 10.748 100.218 10.337 98.602 10.167 L 98.08 10.111 C 97.916 10 97.972 9.506 98.137 9.426 C 99.398 9.485 100.328 9.512 101.456 9.516 C 102.522 9.519 103.456 9.496 104.69 9.445 C 104.851 9.525 104.906 10.02 104.744 10.13 L 104.166 10.183 C 102.576 10.344 102.519 10.754 102.51 13.633 L 102.482 23.501 C 102.474 26.38 102.529 26.736 104.118 26.932 L 104.775 27.018 C 104.939 27.126 104.883 27.62 104.719 27.7 C 103.404 27.642 102.47 27.613 101.404 27.61 C 100.276 27.607 99.292 27.63 98.085 27.681 C 97.921 27.6 97.867 27.161 98.032 26.999 L 98.554 26.916 C 100.226 26.649 100.227 26.373 100.235 23.494 L 100.246 19.63 C 100.249 18.808 100.194 18.753 98.877 18.75 L 91.038 18.727 M 123.512 23.013 C 123.51 23.836 123.5 27.098 123.579 27.81 C 123.525 27.975 123.361 28.113 123.06 28.112 C 122.732 27.644 121.939 26.683 119.561 23.963 L 113.222 16.706 C 112.486 15.855 110.627 13.602 110.053 12.997 L 109.999 12.997 C 109.888 13.326 109.859 13.955 109.856 14.776 L 109.839 20.755 C 109.835 22.042 109.853 25.605 110.317 26.428 C 110.482 26.732 111.027 26.898 111.714 26.953 L 112.562 27.04 C 112.728 27.258 112.699 27.587 112.506 27.723 C 111.273 27.665 110.313 27.634 109.297 27.631 C 108.149 27.628 107.408 27.654 106.447 27.705 C 106.255 27.569 106.23 27.185 106.395 27.023 L 107.137 26.94 C 107.767 26.86 108.204 26.7 108.344 26.396 C 108.73 25.41 108.713 22.067 108.717 20.752 L 108.74 12.828 C 108.742 12.061 108.715 11.484 108.141 10.853 C 107.758 10.468 107.102 10.274 106.443 10.189 L 105.978 10.134 C 105.814 9.97 105.815 9.558 106.034 9.449 C 107.187 9.532 108.639 9.536 109.131 9.537 C 109.571 9.539 110.037 9.515 110.394 9.461 C 110.938 10.862 114.162 14.489 115.061 15.504 L 117.713 18.499 C 119.599 20.616 120.937 22.156 122.222 23.475 L 122.276 23.475 C 122.388 23.339 122.389 22.899 122.391 22.323 L 122.407 16.458 C 122.411 15.171 122.394 11.606 121.875 10.783 C 121.711 10.533 121.274 10.369 120.178 10.228 L 119.712 10.173 C 119.521 10.009 119.548 9.567 119.767 9.488 C 121.028 9.546 121.961 9.574 123.003 9.577 C 124.18 9.581 124.895 9.557 125.826 9.505 C 126.045 9.642 126.044 10.028 125.88 10.191 L 125.494 10.244 C 124.619 10.378 124.069 10.597 123.955 10.815 C 123.49 11.801 123.534 15.199 123.531 16.461 L 123.512 23.013 M 130.744 28.132 C 128.44 28.126 126.99 27.41 126.468 27.106 C 126.144 26.502 125.792 24.556 125.739 23.267 C 125.879 23.075 126.289 23.02 126.399 23.186 C 126.806 24.584 127.922 27.276 131.101 27.285 C 133.404 27.292 134.534 25.787 134.539 24.141 C 134.542 22.934 134.298 21.59 132.299 20.298 L 129.701 18.589 C 128.332 17.681 126.749 16.113 126.755 13.867 C 126.763 11.261 128.796 9.157 132.358 9.167 C 133.209 9.17 134.197 9.337 134.909 9.53 C 135.264 9.643 135.648 9.698 135.865 9.698 C 136.111 10.357 136.356 11.893 136.352 13.044 C 136.241 13.209 135.802 13.287 135.664 13.124 C 135.314 11.807 134.579 10.024 131.946 10.016 C 129.26 10.009 128.679 11.788 128.675 13.051 C 128.671 14.639 129.984 15.795 130.995 16.429 L 133.184 17.804 C 134.91 18.88 136.604 20.472 136.597 23.078 C 136.588 26.092 134.307 28.143 130.744 28.132 M 152.884 17.262 C 151.323 17.258 151.259 17.323 151.256 18.297 L 151.243 22.88 C 151.233 26.29 151.394 26.748 153.213 26.946 L 154.156 27.046 C 154.349 27.178 154.283 27.761 154.089 27.858 C 152.335 27.787 151.229 27.752 149.962 27.748 C 148.565 27.744 147.458 27.805 146.193 27.836 C 145.997 27.737 145.933 27.219 146.13 27.023 L 146.682 26.927 C 148.502 26.608 148.569 26.282 148.579 22.872 L 148.612 11.173 C 148.622 7.76 148.394 7.208 146.706 7.073 L 145.862 7.004 C 145.668 6.876 145.732 6.291 145.929 6.193 C 147.52 6.23 148.626 6.299 150.024 6.303 C 151.29 6.307 152.397 6.278 153.793 6.215 C 153.987 6.314 154.051 6.9 153.854 7.027 L 153.235 7.092 C 151.351 7.283 151.286 7.767 151.276 11.181 L 151.266 14.917 C 151.263 15.925 151.327 15.956 152.888 15.961 L 162.181 15.987 C 163.741 15.992 163.805 15.961 163.808 14.953 L 163.818 11.217 C 163.828 7.803 163.765 7.318 161.847 7.116 L 161.23 7.048 C 161.035 6.92 161.102 6.335 161.299 6.237 C 162.791 6.308 163.897 6.343 165.23 6.347 C 166.496 6.35 167.603 6.321 169.065 6.259 C 169.259 6.358 169.322 6.943 169.126 7.071 L 168.444 7.135 C 166.559 7.326 166.492 7.811 166.482 11.225 L 166.449 22.923 C 166.439 26.334 166.503 26.755 168.387 26.989 L 169.166 27.089 C 169.361 27.221 169.294 27.803 169.099 27.901 C 167.541 27.83 166.435 27.795 165.169 27.792 C 163.836 27.788 162.666 27.817 161.237 27.879 C 161.041 27.78 160.977 27.262 161.173 27.066 L 161.79 26.971 C 163.774 26.652 163.775 26.326 163.785 22.916 L 163.798 18.333 C 163.801 17.359 163.737 17.293 162.177 17.289 L 152.884 17.262"/>
        <path d="M185.514063 19.571C185.527 15.048 183.539 10.165 178.303 10.1499753 175.452 10.142 171.747 12.077 171.729945 18.08 171.718 22.135 173.676 27.407 179.077 27.4220304 182.368 27.432 185.498 24.973 185.514063 19.571M168.984954 18.95C169 13.467 173.125 9.283 178.773 9.29994838 185.103 9.318 188.271 13.906 188.257046 18.731 188.241 24.267 184.009 28.286 178.718 28.2700476 172.632 28.253 168.97 23.882 168.984954 18.95M193.205 23.76C193.197 26.639 193.251 26.996 195.002 27.192L195.744 27.277C195.907 27.414 195.852 27.88 195.688 27.962 194.124 27.901 193.221 27.873 192.122 27.869 190.972 27.866 189.985 27.89 188.779 27.942 188.615 27.859 188.56 27.421 188.726 27.257L189.301 27.176C190.892 26.963 190.948 26.633 190.956 23.754L190.985 13.64C190.992 11.309 190.938 10.841 189.705 10.702L188.719 10.589C188.529 10.425 188.555 10.014 188.776 9.905 190.229 9.717 191.929 9.693 194.204 9.7 196.479 9.706 198.177 10.012 199.464 10.812 200.722 11.612 201.65 13.039 201.644029 14.93 201.637 17.452 200.072 18.709 198.891 19.282 197.684 19.853 196.231 20.096 195.106 20.092 194.914 20.011 194.915 19.598 195.08 19.546 198.042 19.005 199.116 17.336 199.123 14.95 199.131 12.29 197.575 10.56 194.723 10.552 193.27 10.547 193.243 10.656 193.24 11.536L193.205 23.76M204.639 13.924C204.647 11.046 204.592 10.607 203.004 10.466L202.317 10.41C202.152 10.298 202.209 9.804 202.374 9.723 203.717 9.783 204.595 9.81 205.828 9.814 206.897 9.817 207.83 9.795 209.01 9.742 209.172 9.824 209.226 10.319 209.06 10.429L208.541 10.482C206.95 10.642 206.894 11.053 206.886 13.93L206.877 17.085C206.875 17.606 206.928 18.127 207.23 18.128 207.476 18.129 207.807 17.964 207.998 17.826 208.383 17.499 209.098 16.787 209.401 16.515L212.369 13.591C212.891 13.099 214.24 11.704 214.513 11.32 214.652 11.131 214.707 10.993 214.707 10.883 214.708 10.774 214.598 10.692 214.243 10.607L213.503 10.442C213.31 10.25 213.34 9.891 213.56 9.755 214.517 9.814 215.614 9.842 216.574 9.845 217.533 9.847 218.465 9.825 219.289 9.771 219.479 9.909 219.505 10.294 219.341 10.458 218.627 10.511 217.559 10.782 216.789 11.219 216.022 11.655 214.482 12.938 212.943 14.388L210.469 16.71C210.084 17.094 209.837 17.34 209.837 17.559 209.836 17.749 209.999 17.97 210.355 18.409 212.95 21.404 215.054 23.879 217.186 26.132 217.842 26.792 218.444 27.151 219.378 27.263L220.115 27.348C220.307 27.483 220.249 27.949 220.057 28.033 219.345 27.974 218.277 27.943 216.989 27.939 215.865 27.936 214.905 27.962 213.644 28.014 213.453 27.958 213.372 27.492 213.536 27.329L214.167 27.219C214.551 27.165 214.824 27.084 214.825 26.949 214.825 26.783 214.634 26.563 214.444 26.315 213.923 25.656 213.213 24.916 212.176 23.732L209.989 21.258C208.432 19.501 207.995 18.952 207.336 18.95 206.926 18.949 206.87 19.304 206.868 20.264L206.857 23.8C206.849 26.677 206.903 27.061 208.437 27.231L209.178 27.317C209.34 27.427 209.287 27.917 209.12 28.001 207.778 27.941 206.846 27.91 205.776 27.907 204.654 27.904 203.72 27.93 202.597 27.983 202.433 27.898 202.378 27.489 202.543 27.298L203.093 27.216C204.545 27.001 204.602 26.671 204.611 23.794L204.639 13.924M223.454 14.034C223.462 11.127 223.409 10.661 221.792 10.52L221.106 10.463C220.941 10.352 220.998 9.86 221.162 9.777 222.533 9.835 223.466 9.867 224.617 9.87 225.712 9.873 226.645 9.847 228.016 9.796 228.181 9.88 228.234 10.373 228.069 10.483L227.384 10.536C225.765 10.668 225.708 11.134 225.7 14.04L225.672 23.798C225.663 26.706 225.718 27.09 227.336 27.285L228.02 27.369C228.185 27.481 228.13 27.972 227.964 28.055 226.593 27.995 225.66 27.965 224.565 27.962 223.414 27.959 222.481 27.983 221.11 28.035 220.946 27.952 220.892 27.515 221.058 27.35L221.744 27.269C223.362 27.083 223.418 26.699 223.426 23.792L223.454 14.034M247.139 23.367C247.137 24.19 247.127 27.452 247.209 28.164 247.152 28.329 246.99 28.467 246.687 28.4660054 246.359 27.998 245.567 27.037 243.19 24.317L236.85 17.06C236.113 16.209 234.255 13.956 233.681 13.351L233.628 13.351C233.516 13.68 233.486 14.308 233.483 15.13L233.466 21.109C233.462 22.396 233.481 25.959 233.945 26.782 234.108 27.086 234.657 27.252 235.341 27.307L236.191 27.394C236.355 27.612 236.327 27.941 236.134 28.077 234.901 28.019 233.941 27.988 232.926 27.985 231.777 27.982 231.035 28.008 230.076 28.059 229.884 27.923 229.858 27.539 230.023 27.377L230.765 27.294C231.393 27.214 231.833 27.054 231.97 26.75 232.358 25.764 232.34 22.421 232.344 21.105L232.366 13.182C232.369 12.415 232.343 11.838 231.769 11.207 231.386 10.822 230.728 10.628 230.071 10.543L229.605 10.488C229.44 10.324 229.441 9.912 229.663 9.803 230.815 9.886 232.266 9.89 232.76 9.891 233.198 9.893 233.664 9.869 234.02 9.815 234.565 11.215 237.789 14.843 238.69 15.858L241.341 18.853C243.226 20.97 244.564 22.51 245.85 23.829L245.906 23.829C246.016 23.693 246.017 23.253 246.019 22.677L246.035 16.812C246.039 15.525 246.021 11.96 245.503 11.137 245.34 10.887 244.901 10.723 243.806 10.582L243.34 10.527C243.148 10.363 243.176 9.921 243.395 9.842 244.656 9.9 245.589 9.928 246.63 9.931 247.811 9.934 248.523 9.911 249.454 9.859 249.675 9.996 249.673 10.382 249.507 10.545L249.123 10.598C248.246 10.732 247.697 10.951 247.585 11.169 247.117 12.155 247.161 15.553 247.158 16.815L247.139 23.367M254.323 28.4860364C252.02 28.48 250.571 27.764 250.049 27.46 249.724 26.856 249.372 24.91 249.321 23.62 249.459 23.429 249.873 23.374 249.978 23.54 250.386 24.938 251.503 27.63 254.682 27.639 256.985 27.646 258.114 26.141 258.119 24.495 258.122 23.288 257.878 21.944 255.881 20.652L253.282 18.942C251.913 18.034 250.328 16.466 250.334 14.221 250.342 11.615 252.376 9.511 255.94 9.5209645 256.79 9.524 257.776 9.691 258.49 9.884 258.845 9.997 259.229 10.052 259.447 10.052 259.693 10.711 259.935 12.247 259.931 13.398 259.821 13.563 259.383 13.641 259.245 13.478 258.894 12.16 258.159 10.378 255.527 10.37 252.841 10.363 252.259 12.142 252.255 13.404 252.251 14.993 253.565 16.149 254.575 16.783L256.765 18.158C258.49 19.234 260.185 20.826 260.178022 23.432 260.169 26.446 257.887 28.496 254.323 28.4860364"/>
    </g>
    <text xmlns="http://www.w3.org/2000/svg" fill="#FFFFFE" style="fill-rule: evenodd; font-size: 9.4px; white-space: pre;" x="68.619" y="173.412" transform="matrix(1, 0, 0, 1, 7.105427357601002e-15, 7.105427357601002e-15)">
        <tspan x="178.619" y="223.412" style="font-size: 20px; word-spacing: 0px;">CDHAI</tspan>
        <tspan style="font-size: 9.4px; word-spacing: 0px;">
        </tspan>
    </text>
</svg>
